<svg width="40" height="40" viewBox="0 0 40 40" fill="none" xmlns="http://www.w3.org/2000/svg">
<path fill-rule="evenodd" clip-rule="evenodd" d="M10.0002 4.16699C9.55814 4.16699 9.13421 4.34259 8.82165 4.65515C8.50909 4.96771 8.3335 5.39163 8.3335 5.83366V9.16699C8.3335 9.60902 8.50909 10.0329 8.82165 10.3455C9.13421 10.6581 9.55814 10.8337 10.0002 10.8337C10.4422 10.8337 10.8661 10.6581 11.1787 10.3455C11.4912 10.0329 11.6668 9.60902 11.6668 9.16699V5.83366C11.6668 5.39163 11.4912 4.96771 11.1787 4.65515C10.8661 4.34259 10.4422 4.16699 10.0002 4.16699ZM21.6665 35.8333C24.0298 35.833 26.3167 34.996 28.1218 33.4707C29.9269 31.9453 31.1336 29.8301 31.5282 27.5H31.6665C33.4346 27.5 35.1303 26.7976 36.3805 25.5474C37.6308 24.2971 38.3332 22.6014 38.3332 20.8333C38.3332 19.0652 37.6308 17.3695 36.3805 16.1193C35.1303 14.869 33.4346 14.1667 31.6665 14.1667V12.5H1.6665V25.8333C1.6665 28.4855 2.72007 31.029 4.59544 32.9044C6.4708 34.7798 9.01434 35.8333 11.6665 35.8333H21.6665ZM4.99984 15.8333V25.8333C4.99984 27.6014 5.70222 29.2971 6.95246 30.5474C8.2027 31.7976 9.89839 32.5 11.6665 32.5H21.6665C23.4346 32.5 25.1303 31.7976 26.3805 30.5474C27.6308 29.2971 28.3332 27.6014 28.3332 25.8333V15.8333H4.99984ZM34.9998 20.8333C34.9998 21.7174 34.6486 22.5652 34.0235 23.1904C33.3984 23.8155 32.5506 24.1667 31.6665 24.1667V17.5C32.5506 17.5 33.3984 17.8512 34.0235 18.4763C34.6486 19.1014 34.9998 19.9493 34.9998 20.8333ZM15.4882 4.65515C15.1756 4.96771 15 5.39163 15 5.83366V9.16699C15 9.60902 15.1756 10.0329 15.4882 10.3455C15.8007 10.6581 16.2246 10.8337 16.6667 10.8337C17.1087 10.8337 17.5326 10.6581 17.8452 10.3455C18.1577 10.0329 18.3333 9.60902 18.3333 9.16699V5.83366C18.3333 5.39163 18.1577 4.96771 17.8452 4.65515C17.5326 4.34259 17.1087 4.16699 16.6667 4.16699C16.2246 4.16699 15.8007 4.34259 15.4882 4.65515ZM22.1548 4.65515C22.4674 4.34259 22.8913 4.16699 23.3333 4.16699C23.7754 4.16699 24.1993 4.34259 24.5118 4.65515C24.8244 4.96771 25 5.39163 25 5.83366V9.16699C25 9.60902 24.8244 10.0329 24.5118 10.3455C24.1993 10.6581 23.7754 10.8337 23.3333 10.8337C22.8913 10.8337 22.4674 10.6581 22.1548 10.3455C21.8423 10.0329 21.6667 9.60902 21.6667 9.16699V5.83366C21.6667 5.39163 21.8423 4.96771 22.1548 4.65515Z" fill="#363636"/>
</svg>
