<svg width="40" height="40" viewBox="0 0 40 40" fill="none" xmlns="http://www.w3.org/2000/svg">
<path d="M34 31.2344V20.4125C34.0001 19.6596 33.8445 18.9147 33.5429 18.2232C33.2413 17.5318 32.7999 16.9084 32.2458 16.3913L21.9236 6.75596C21.4037 6.27049 20.7154 6 20 6C19.2846 6 18.5963 6.27049 18.0764 6.75596L7.7542 16.3913C7.20011 16.9084 6.75873 17.5318 6.4571 18.2232C6.15546 18.9147 5.99992 19.6596 6 20.4125V31.2344C6 31.9679 6.295 32.6713 6.8201 33.19C7.3452 33.7086 8.05739 34 8.8 34H31.2C31.9426 34 32.6548 33.7086 33.1799 33.19C33.705 32.6713 34 31.9679 34 31.2344Z" stroke="#F7F8F1" stroke-width="3.33333" stroke-linecap="round" stroke-linejoin="round"/>
</svg>
