<svg width="40" height="40" viewBox="0 0 40 40" fill="none" xmlns="http://www.w3.org/2000/svg">
<path d="M35 7.5H5C4.66848 7.5 4.35054 7.6317 4.11612 7.86612C3.8817 8.10054 3.75 8.41848 3.75 8.75V30C3.75 30.663 4.01339 31.2989 4.48223 31.7678C4.95107 32.2366 5.58696 32.5 6.25 32.5H33.75C34.413 32.5 35.0489 32.2366 35.5178 31.7678C35.9866 31.2989 36.25 30.663 36.25 30V8.75C36.25 8.41848 36.1183 8.10054 35.8839 7.86612C35.6495 7.6317 35.3315 7.5 35 7.5ZM21.8906 19.0625L20 20.7969L8.21875 10H31.7812L21.8906 19.0625ZM15.4219 20L6.25 28.4063V11.5937L15.4219 20ZM17.2656 21.7031L19.1562 23.4219C19.3867 23.6327 19.6877 23.7496 20 23.7496C20.3123 23.7496 20.6133 23.6327 20.8437 23.4219L22.7344 21.7031L31.7812 30H8.21875L17.2656 21.7031ZM24.5781 20L33.75 11.5937V28.4063L24.5781 20Z" fill="#F7F8F1"/>
</svg>
