<svg width="40" height="40" viewBox="0 0 40 40" fill="none" xmlns="http://www.w3.org/2000/svg">
<path d="M6.66667 21.6663C7.58714 21.6663 8.33333 20.9201 8.33333 19.9997C8.33333 19.0792 7.58714 18.333 6.66667 18.333C5.74619 18.333 5 19.0792 5 19.9997C5 20.9201 5.74619 21.6663 6.66667 21.6663Z" stroke="#363636" stroke-width="3.33333"/>
<path d="M20.0002 21.6663C20.9206 21.6663 21.6668 20.9201 21.6668 19.9997C21.6668 19.0792 20.9206 18.333 20.0002 18.333C19.0797 18.333 18.3335 19.0792 18.3335 19.9997C18.3335 20.9201 19.0797 21.6663 20.0002 21.6663Z" stroke="#363636" stroke-width="3.33333"/>
<path d="M33.3332 21.6663C34.2536 21.6663 34.9998 20.9201 34.9998 19.9997C34.9998 19.0792 34.2536 18.333 33.3332 18.333C32.4127 18.333 31.6665 19.0792 31.6665 19.9997C31.6665 20.9201 32.4127 21.6663 33.3332 21.6663Z" stroke="#363636" stroke-width="3.33333"/>
</svg>
