<svg width="40" height="40" viewBox="0 0 40 40" fill="none" xmlns="http://www.w3.org/2000/svg">
<path fill-rule="evenodd" clip-rule="evenodd" d="M7.13916 6.33333C6.69412 6.33333 6.33333 6.69412 6.33333 7.13916V31.8641C6.33333 32.3091 6.6941 32.6699 7.13916 32.6699H31.8641C32.3091 32.6699 32.6699 32.3091 32.6699 31.8641V24.0128C32.6699 23.0924 33.4161 22.3462 34.3365 22.3462C35.257 22.3462 36.0032 23.0924 36.0032 24.0128V31.8641C36.0032 34.1501 34.1501 36.0032 31.8641 36.0032H7.13916C4.85318 36.0032 3 34.1501 3 31.8641V7.13916C3 4.85317 4.85317 3 7.13916 3H14.5566C15.4771 3 16.2233 3.74619 16.2233 4.66667C16.2233 5.58714 15.4771 6.33333 14.5566 6.33333H7.13916ZM21.1321 4.66667C21.1321 3.74619 21.8783 3 22.7987 3H34.337C35.2575 3 36.0037 3.74619 36.0037 4.66667V16.2049C36.0037 17.1254 35.2575 17.8716 34.337 17.8716C33.4165 17.8716 32.6703 17.1254 32.6703 16.2049V8.68961L22.1636 19.1963C21.5128 19.8472 20.4575 19.8472 19.8066 19.1963C19.1558 18.5454 19.1558 17.4902 19.8066 16.8393L30.3126 6.33333H22.7987C21.8783 6.33333 21.1321 5.58714 21.1321 4.66667Z" fill="#F7F8F1"/>
</svg>
