<svg width="40" height="40" viewBox="0 0 40 40" fill="none" xmlns="http://www.w3.org/2000/svg">
<path d="M20.0001 5.33301C20.4511 5.33301 20.8829 5.51583 21.1968 5.83972L26.7968 11.6175C27.4375 12.2785 27.421 13.3336 26.76 13.9742C26.0991 14.6149 25.0439 14.5984 24.4033 13.9374L21.6667 11.114V24.333C21.6667 25.2535 20.9205 25.9997 20.0001 25.9997C19.0796 25.9997 18.3334 25.2535 18.3334 24.333V11.114L15.5968 13.9374C14.9562 14.5984 13.9011 14.6149 13.2401 13.9742C12.5791 13.3336 12.5627 12.2785 13.2033 11.6175L18.8033 5.83972C19.1172 5.51583 19.549 5.33301 20.0001 5.33301Z" fill="#F7F8F1"/>
<path d="M5.60772 25.6021C6.50233 25.3854 7.40321 25.9349 7.61989 26.8296L8.48927 30.4189C8.55589 30.6938 8.70736 30.928 8.9082 31.0898C9.10797 31.2508 9.34651 31.3329 9.58546 31.333H30.4147C30.6536 31.3329 30.8921 31.2508 31.0919 31.0898C31.2928 30.928 31.4442 30.6939 31.5109 30.4189L32.3802 26.8296C32.5969 25.9349 33.4978 25.3854 34.3924 25.6021C35.287 25.8187 35.8366 26.7196 35.6199 27.6142L34.7505 31.2037C34.5143 32.1787 33.9666 33.0543 33.1833 33.6855C32.3989 34.3175 31.4247 34.6662 30.4149 34.6663H9.58546C8.57572 34.6662 7.60121 34.3175 6.81684 33.6855C6.03349 33.0543 5.48587 32.1788 5.24965 31.2038L4.38023 27.6142C4.16355 26.7196 4.71311 25.8187 5.60772 25.6021Z" fill="#F7F8F1"/>
</svg>
