<svg width="80" height="77" viewBox="0 0 80 77" fill="none" xmlns="http://www.w3.org/2000/svg">
<path d="M37.8795 58.552C37.8795 54.9451 37.8795 51.4308 37.8795 47.639C37.6948 42.4599 37.3254 42.09 32.246 42.275C23.4725 42.6449 14.6067 43.2923 6.01788 44.6795C5.46376 44.6795 4.63259 45.0495 4.07847 45.0495C2.50848 44.8645 1.12319 44.4946 0.384373 42.6449C-0.354447 41.0727 0.0149799 39.6854 1.12321 38.2982C3.70908 35.3387 7.03376 34.3214 10.7279 34.3214C16.8231 34.3214 22.826 33.7665 28.9213 33.1191C36.7712 32.2868 36.7712 32.2868 36.7712 24.2408C36.7712 20.079 35.7554 16.1023 35.2013 11.9405C35.0166 9.72096 34.4625 7.59384 34.8319 5.18929C35.386 2.4148 37.6024 0.472656 39.9112 0.472656C42.2201 0.657622 43.6053 2.22983 44.0671 5.46674C44.6212 12.033 45.083 18.5068 45.2677 24.8882C45.2677 30.8071 45.4524 30.8071 51.1782 30.8071C57.8276 30.8071 68.4482 30.992 74.9128 30.992C77.6834 30.992 79.9922 32.7492 79.9922 34.7838C80.1769 37.0034 77.0369 40.8877 74.3587 40.5178C67.3399 39.3155 56.2576 41.0727 49.0541 40.8877C46.4683 40.8877 45.7295 41.905 45.9142 44.2171C46.2836 52.3556 46.4683 59.2918 47.1147 67.3379C47.2994 70.1123 46.3759 71.8695 44.1594 73.2568C41.0195 75.014 37.8795 73.4417 37.6948 69.6499C37.6948 66.5055 37.6948 62.5287 37.8795 58.552Z" fill="#FF6F61"/>
<path d="M66.5088 67.2455C66.8782 63.9161 69.464 61.3266 72.4193 61.5115C75.1899 61.6965 77.4987 64.286 77.1293 67.0605C76.7599 70.02 73.6199 72.7945 70.8493 72.6095C68.2635 72.4245 66.324 69.835 66.5088 67.2455Z" fill="#FF6F61"/>
<path d="M15.3455 8.88867C15.3455 10.8308 11.6514 14.4376 9.43498 14.6226C6.84911 14.8076 4.54028 12.2181 4.54028 9.62854C4.72499 6.66908 7.49556 3.52466 9.61967 3.52466C12.2055 3.80211 15.3455 6.76156 15.3455 8.88867Z" fill="#FF6F61"/>
<path d="M65.2158 6.11419C65.4005 2.13743 67.5246 -0.174647 71.1264 0.0103186C73.4352 0.195285 75.4669 2.59984 75.2822 4.72695C75.0975 7.68641 72.1422 11.0158 69.6487 11.0158C66.9705 11.1083 65.2158 9.07365 65.2158 6.11419Z" fill="#FF6F61"/>
<path d="M11.8361 76.0313C9.25019 75.8463 7.95728 74.2741 7.95728 71.6846C7.95728 68.3552 11.0972 65.3958 14.2372 65.5807C16.3613 65.7657 18.3931 67.8003 18.3931 70.1124C18.116 73.2568 14.976 76.2163 11.8361 76.0313Z" fill="#FF6F61"/>
</svg>
