<svg width="40" height="40" viewBox="0 0 40 40" fill="none" xmlns="http://www.w3.org/2000/svg">
<path d="M18.65 3.75C18.2167 3.75 17.7834 3.85 17.3667 4L5.10005 9.08333C4.28466 9.41724 3.63524 10.0613 3.29457 10.8739C2.95391 11.6865 2.94988 12.6011 3.28338 13.4167L11.55 33.3333C11.7942 33.9374 12.2101 34.4567 12.7462 34.827C13.2824 35.1972 13.9153 35.4023 14.5667 35.4167C15 35.4167 15.45 35.3667 15.8834 35.1667L28.1667 30.0833C28.7596 29.8317 29.2678 29.4154 29.6312 28.8836C29.9945 28.3519 30.1977 27.7271 30.2167 27.0833C30.2334 26.6667 30.15 26.1833 30 25.75L21.6667 5.83333C21.4311 5.22337 21.0174 4.69843 20.4794 4.32686C19.9413 3.95529 19.3039 3.75428 18.65 3.75V3.75ZM24.45 3.75L30.2001 17.6667V7.08333C30.2001 6.19928 29.8489 5.35143 29.2237 4.72631C28.5986 4.10119 27.7508 3.75 26.8667 3.75H24.45ZM33.55 6.31667V21.3667L37.6 11.6C37.7661 11.1963 37.8508 10.7637 37.8493 10.3272C37.8478 9.89068 37.7602 9.45874 37.5914 9.05615C37.4226 8.65356 37.176 8.28826 36.8658 7.98118C36.5555 7.67409 36.1877 7.43128 35.7834 7.26667L33.55 6.31667ZM18.65 7.03333L26.95 27.0667L14.6334 32.1667L6.33338 12.15" fill="#FF6F61"/>
</svg>
