<svg width="40" height="40" viewBox="0 0 40 40" fill="none" xmlns="http://www.w3.org/2000/svg">
<path d="M20 29C20 29.5523 20.4477 30 21 30H34C34.5523 30 35 29.5523 35 29V27.6667C35 27.1144 34.5523 26.6667 34 26.6667H21C20.4477 26.6667 20 27.1144 20 27.6667V29ZM5 20.6667C5 21.219 5.44772 21.6667 6 21.6667H34C34.5523 21.6667 35 21.219 35 20.6667V19.3333C35 18.781 34.5523 18.3333 34 18.3333H6C5.44772 18.3333 5 18.781 5 19.3333V20.6667ZM5 12.3333C5 12.8856 5.44772 13.3333 6 13.3333H19C19.5523 13.3333 20 12.8856 20 12.3333V11C20 10.4477 19.5523 10 19 10H6C5.44772 10 5 10.4477 5 11V12.3333Z" fill="#FF6F61"/>
</svg>
