<svg width="14" height="44" viewBox="0 0 14 44" fill="none" xmlns="http://www.w3.org/2000/svg">
<path fill-rule="evenodd" clip-rule="evenodd" d="M0.971656 0.17927C1.38641 -0.0217373 1.86674 -0.0551636 2.30697 0.0863443C2.74721 0.227852 3.1113 0.532704 3.31915 0.93384L13.8146 21.2362C13.9365 21.4714 14 21.731 14 21.9941C14 22.2573 13.9365 22.5168 13.8146 22.7521L3.31915 43.0544C3.21732 43.2548 3.0755 43.4337 2.90184 43.5808C2.72819 43.7279 2.52614 43.8403 2.30735 43.9116C2.08856 43.9828 1.85736 44.0115 1.62707 43.9959C1.39677 43.9803 1.17195 43.9207 0.965562 43.8207C0.759171 43.7207 0.575294 43.5821 0.424532 43.413C0.27377 43.2439 0.159105 43.0477 0.0871473 42.8355C0.0151896 42.6233 -0.012637 42.3995 0.0052714 42.1769C0.0231798 41.9543 0.0864691 41.7373 0.191491 41.5385L10.2917 21.9941L0.191491 2.44975C-0.0163354 2.0486 -0.0508963 1.58403 0.0954116 1.15824C0.24172 0.732446 0.556913 0.380302 0.971656 0.17927V0.17927Z" fill="#F7F8F1"/>
</svg>
