<svg width="694" height="125" viewBox="0 0 694 125" fill="none" xmlns="http://www.w3.org/2000/svg">
<g clip-path="url(#clip0_1268_2482)">
<path d="M186.77 41.6252C190.098 35.9345 195.423 31.6842 201.71 29.7003C214.932 25.5427 225.091 30.4969 229.448 43.6915C233.233 55.1185 233.357 66.9688 232.909 78.819C232.536 88.7772 230.892 98.7353 231.365 108.893C231.443 109.757 231.339 110.628 231.062 111.45C230.784 112.271 230.338 113.027 229.753 113.667C229.167 114.307 228.454 114.818 227.66 115.168C226.866 115.518 226.008 115.699 225.141 115.699C224.273 115.699 223.415 115.518 222.621 115.168C221.826 114.818 221.114 114.307 220.528 113.667C219.943 113.027 219.497 112.271 219.219 111.45C218.942 110.628 218.838 109.757 218.916 108.893C218.758 102.131 219.174 95.3686 220.161 88.6776C221.594 77.9408 221.653 67.0651 220.335 56.3135C219.961 52.3393 218.82 48.4755 216.973 44.9363C216.374 43.3759 215.195 42.1068 213.683 41.3928C212.172 40.6787 210.443 40.5747 208.856 41.1024C205.897 41.3619 203.109 42.5989 200.932 44.6184C198.754 46.638 197.311 49.325 196.83 52.2555C195.253 59.0376 194.476 65.9809 194.514 72.9436C194.688 84.1217 192.746 95.1504 192.547 106.304C192.613 107.182 192.495 108.065 192.201 108.896C191.906 109.727 191.442 110.488 190.838 111.129C190.234 111.771 189.502 112.28 188.691 112.623C187.879 112.967 187.005 113.138 186.123 113.125C182.562 113.125 180.147 110.337 179.998 106.03C179.624 93.8807 180.77 81.7816 181.442 69.6575C181.956 61.4563 179.958 53.2931 175.715 46.2557C172.777 41.2766 168.245 41.4758 165.208 46.2557C162.782 50.9553 161.326 56.0942 160.925 61.3673C159.627 73.6366 159.186 85.9814 159.605 98.3121C159.605 100.503 159.73 102.694 159.605 104.885C159.656 105.659 159.55 106.436 159.293 107.169C159.036 107.902 158.634 108.576 158.111 109.15C157.588 109.724 156.955 110.186 156.249 110.51C155.543 110.834 154.779 111.012 154.003 111.034C153.247 111.018 152.503 110.85 151.814 110.54C151.125 110.229 150.506 109.783 149.994 109.227C149.483 108.671 149.089 108.018 148.836 107.306C148.584 106.593 148.478 105.838 148.525 105.084C148.002 89.1008 146.184 73.093 148.301 57.1102C148.904 51.9656 150.246 46.9348 152.285 42.1729C158.56 28.0821 173.325 25.8414 183.509 37.4676C184.53 38.812 185.55 40.1564 186.77 41.6252Z" fill="#10100F"/>
<path d="M678.459 59.525C677.612 49.9153 676.782 40.3223 675.969 30.7458C675.401 22.5092 675.318 14.2462 675.72 5.99977C675.679 4.62966 676.179 3.29835 677.11 2.29258C678.042 1.2868 679.331 0.687014 680.7 0.622346C682.058 0.541424 683.398 0.963998 684.464 1.80915C685.53 2.6543 686.246 3.86267 686.477 5.2031C686.746 6.2608 686.879 7.34827 686.875 8.43955C686.377 23.2025 688.767 37.7664 690.286 52.38C691.357 62.6618 692.577 72.9187 693.598 83.2006C694.171 88.9763 692.477 91.0177 686.626 91.8144C685.431 91.9886 684.958 92.8102 684.311 93.5072C680.119 98.0042 675.582 102.166 670.74 105.955C652.19 120.892 632.868 110.934 626.494 93.5072C622.819 83.9211 622.873 73.306 626.644 63.7572C632.346 49.044 645.343 43.3928 660.283 48.82C665.953 50.9922 671.246 54.0417 675.969 57.8569C676.666 58.6287 677.239 59.5748 678.459 59.525ZM636.13 78.8439C635.949 84.9505 637.924 90.9259 641.708 95.723C646.289 101.051 652.539 102.594 658.266 99.3079C665.822 94.8607 672.403 88.9333 677.613 81.8811C678.06 81.4214 678.326 80.8158 678.363 80.1755C678.399 79.5353 678.204 78.9033 677.812 78.3957C672.113 69.395 663.305 62.8028 653.062 59.8735C646.165 58.0063 641.16 60.6701 638.446 67.3421C636.947 70.9905 636.185 74.8996 636.205 78.8439H636.13Z" fill="#10100F"/>
<path d="M529.784 59.0022C528.689 46.0068 527.021 33.2852 526.822 20.464C526.822 15.6094 526.822 10.7299 526.822 5.8504C526.697 4.44159 527.135 3.04069 528.04 1.9538C528.945 0.866916 530.244 0.18236 531.652 0.0497206C533.107 -0.0819377 534.556 0.367972 535.68 1.30103C536.805 2.23408 537.514 3.57436 537.653 5.02881C537.885 6.1 537.993 7.19422 537.976 8.29011C538.025 21.1121 538.974 33.9149 540.815 46.6042C542.185 58.7283 543.529 70.8773 544.724 83.0263C545.247 88.553 543.355 90.6692 537.877 91.2169C537.374 91.2873 536.893 91.4635 536.463 91.7339C536.034 92.0043 535.667 92.3626 535.387 92.7852C531.211 97.3183 526.691 101.522 521.866 105.357C503.117 120.569 483.845 110.337 477.521 93.1089C473.797 83.4374 473.85 72.7189 477.67 63.085C483.397 48.3967 496.444 42.845 511.384 48.4465C516.961 50.588 522.17 53.5866 526.822 57.3341C527.603 58.1959 528.642 58.7812 529.784 59.0022V59.0022ZM501.075 58.8528C499.283 58.6702 497.474 58.9629 495.83 59.7015C494.187 60.4401 492.767 61.5985 491.713 63.0601C485.563 71.5245 486.26 87.4078 493.133 95.225C495.134 97.8913 498.091 99.6788 501.382 100.213C504.674 100.746 508.044 99.9849 510.786 98.088C517.582 93.7431 523.586 88.2705 528.54 81.9059C529.185 81.2377 529.545 80.3451 529.545 79.4164C529.545 78.4876 529.185 77.5951 528.54 76.9268C523.674 69.9672 517.038 64.4324 509.317 60.8942C506.774 59.6324 503.988 58.936 501.15 58.8528H501.075Z" fill="#10100F"/>
<path d="M600.275 71.7238C596.939 63.8319 594.075 56.7865 588.049 51.3593C586.564 50.0918 584.794 49.2031 582.891 48.7695C580.987 48.3359 579.006 48.3703 577.119 48.8698C574.496 49.4496 571.935 50.2834 569.474 51.3593C568.449 51.8818 567.314 52.1541 566.163 52.1541C565.012 52.1541 563.877 51.8818 562.851 51.3593C559.266 49.3677 558.842 44.0151 562.478 42.2974C568.952 39.2601 575.65 36.5963 583.07 37.1689C586.296 37.4819 589.428 38.4332 592.284 39.9675C595.139 41.5019 597.661 43.5886 599.702 46.1064C607.371 54.5708 611.206 65.0021 614.642 75.6573C614.973 77.0071 615.38 78.3369 615.862 79.6405C618.8 86.0884 616.983 91.8643 612.65 96.7438C603.935 106.553 593.527 113.548 579.683 113.225C573.061 113.098 566.65 110.866 561.382 106.851C558.973 105.223 556.979 103.052 555.56 100.514C554.142 97.975 553.339 95.1392 553.216 92.234C553.092 89.3289 553.652 86.4352 554.849 83.7855C556.047 81.1357 557.85 78.8038 560.112 76.9768C568.379 69.6326 578.388 68.3629 588.921 69.3339C592.773 69.7692 596.575 70.5694 600.275 71.7238V71.7238ZM585.783 81.4579C578.09 81.4579 572.836 82.3044 568.528 85.9889C567.604 86.6062 566.853 87.4513 566.35 88.4426C565.847 89.4339 565.608 90.5381 565.655 91.6487C565.703 92.7594 566.036 93.8391 566.622 94.7838C567.208 95.7285 568.027 96.5064 569.001 97.0425C571.834 99.1054 575.172 100.362 578.662 100.677C588.896 101.573 596.092 95.972 602.79 89.2751C604.358 87.7067 603.089 86.7855 601.819 86.1134C596.958 83.2418 591.452 81.6407 585.808 81.4579H585.783Z" fill="#10100F"/>
<path d="M141.354 62.9854C140.209 78.7691 135.428 93.1836 124.373 104.934C116.355 113.473 106.619 116.859 95.1407 112.951C87.1729 110.212 83.0893 103.963 80.7986 96.2209C77.0886 83.7731 79.7528 72.0225 84.9567 60.6204C88.1007 53.6242 92.1618 47.0773 97.033 41.1522C97.9221 39.8286 99.1228 38.7436 100.53 37.9927C101.936 37.2417 103.506 36.8476 105.1 36.8452C107.341 36.8452 109.333 35.3018 111.624 34.8785C117.628 33.5504 123.914 34.597 129.163 37.7992C134.413 41.0013 138.219 46.1106 139.785 52.0564C140.83 55.6052 141.358 59.286 141.354 62.9854V62.9854ZM128.68 63.2344C128.835 59.8227 128.222 56.4198 126.887 53.2762C126.239 51.6848 125.212 50.2753 123.897 49.1695C122.581 48.0637 121.016 47.2949 119.337 46.9297C117.657 46.5644 115.914 46.6136 114.258 47.0731C112.602 47.5326 111.082 48.3885 109.831 49.5668C109.212 50.2704 108.444 50.8276 107.582 51.1979C106.721 51.5681 105.788 51.7423 104.851 51.7078C103.358 51.5335 102.735 52.3551 102.063 53.4256C98.5611 58.9831 95.7437 64.9431 93.6715 71.176C91.1211 78.3392 90.8687 86.1193 92.9495 93.4326C93.3634 95.213 94.1985 96.8682 95.3846 98.2591C96.5707 99.6501 98.0733 100.736 99.7661 101.426C101.459 102.117 103.293 102.391 105.113 102.226C106.934 102.061 108.689 101.461 110.23 100.478C112.504 99.1902 114.529 97.5036 116.206 95.4989C123.89 86.4617 128.286 75.0893 128.68 63.2344V63.2344Z" fill="#10100F"/>
<path d="M0 89.9223C0.497988 78.4704 6.37436 66.5455 15.8361 56.3384C25.7423 45.6594 38.8496 38.4865 53.1852 35.8992C55.6618 35.331 58.2475 35.4602 60.6551 36.2727C61.6739 36.6087 62.6063 37.1645 63.3865 37.9007C64.1667 38.637 64.7756 39.5356 65.1699 40.5332C65.5642 41.5307 65.7345 42.6028 65.6685 43.6734C65.6026 44.7441 65.3021 45.7871 64.7883 46.7287C64.4593 47.5435 63.9329 48.2638 63.2566 48.8248C62.5802 49.3859 61.7749 49.7701 60.9133 49.9429C60.0516 50.1157 59.1606 50.0716 58.3201 49.8148C57.4797 49.558 56.7162 49.0963 56.0984 48.4714C55.7298 48.0189 55.2327 47.6887 54.6726 47.5242C54.1126 47.3598 53.5159 47.3689 52.9611 47.5503C33.0416 53.799 18.8987 65.9729 13.122 86.661C12.0262 90.6197 12.0262 94.8016 13.122 98.7602C15.612 108.046 24.0031 113.498 34.4858 112.478C42.2601 111.75 49.8456 109.66 56.8952 106.304C59.6891 104.982 62.2665 103.244 64.5394 101.15C65.8457 99.7738 67.3891 98.6438 69.0958 97.8142C70.122 97.2782 71.2916 97.081 72.4368 97.2509C73.582 97.4209 74.6439 97.9493 75.4701 98.7602C76.27 99.5214 76.8162 100.51 77.0345 101.593C77.2528 102.675 77.1327 103.798 76.6903 104.81C75.7597 107.127 74.251 109.167 72.308 110.735C63.4936 118.552 52.6623 121.764 41.4576 124.004C34.5389 125.66 27.2911 125.306 20.5669 122.983C7.49474 118.179 0 106.876 0 89.9223Z" fill="#10100F"/>
<path d="M343.537 87.0096C345.011 77.1474 344.605 67.0954 342.342 57.3839C341.378 53.1995 339.693 49.2149 337.362 45.6084C333.229 39.4095 327.253 39.2103 322.871 45.2848C318.986 50.6871 318.04 57.1848 316.621 63.4584C313.608 76.9269 315.202 90.5945 314.753 104.162C314.799 105.651 314.614 107.137 314.205 108.569C313.899 109.69 313.223 110.676 312.288 111.366C311.354 112.057 310.213 112.414 309.051 112.378C307.95 112.427 306.863 112.109 305.962 111.473C305.061 110.838 304.396 109.922 304.071 108.868C303.725 107.941 303.524 106.967 303.474 105.98C303.25 96.0217 302.827 86.2875 302.951 76.4538C303.059 65.6041 305.143 54.8648 309.101 44.762C313.135 34.5798 321.551 28.3808 330.838 28.4306C338.109 28.4306 343.288 32.4387 347.123 37.9655C352.246 45.7185 355.322 54.6434 356.061 63.9066C357.73 77.6987 356.335 91.5156 355.812 105.308C355.663 109.59 353.771 111.955 350.833 112.527C349.903 112.735 348.937 112.72 348.014 112.484C347.091 112.248 346.237 111.798 345.521 111.169C344.805 110.541 344.248 109.752 343.895 108.868C343.541 107.984 343.402 107.028 343.487 106.079C343.487 99.7311 343.537 93.2832 343.537 87.0096Z" fill="#10100F"/>
<path d="M279.396 61.5166C279.681 53.9545 278.584 46.4039 276.159 39.2353C275.867 38.5088 275.723 37.7312 275.736 36.9483C275.748 36.1653 275.917 35.3929 276.233 34.6762C276.548 33.9595 277.004 33.313 277.573 32.7749C278.142 32.2368 278.812 31.8178 279.546 31.5426C280.992 30.9394 282.616 30.9187 284.078 31.4847C285.54 32.0507 286.726 33.1597 287.389 34.5798C289.991 39.8707 291.41 45.6643 291.547 51.5585C292.419 66.0227 291.97 80.3874 286.393 94.1048C284.675 99.4756 281.635 104.329 277.554 108.221C275.609 110.021 273.317 111.407 270.818 112.292C268.319 113.177 265.667 113.544 263.021 113.369C260.376 113.194 257.795 112.482 255.434 111.276C253.074 110.069 250.984 108.394 249.293 106.353C243.217 99.5818 241.001 91.192 240.304 82.4786C239.459 67.4672 241.006 52.4169 244.886 37.8909C245.151 36.515 245.779 35.2347 246.703 34.1815C247.456 33.1732 248.532 32.4545 249.752 32.1462C250.972 31.8379 252.26 31.9588 253.401 32.4885C254.599 33.0307 255.552 33.9983 256.077 35.2034C256.601 36.4086 256.659 37.7656 256.24 39.0112C253.115 51.3294 251.74 64.0263 252.156 76.7278C252.179 82.4159 253.33 88.0431 255.543 93.2832C257.236 97.1171 259.452 100.752 264.232 100.752C269.013 100.752 271.503 97.1171 273.271 93.1339C277.677 83.1932 279.771 72.3831 279.396 61.5166V61.5166Z" fill="#10100F"/>
<path d="M412.982 97.9692C412.982 93.6861 412.982 89.5128 412.982 85.0101C412.763 78.8599 412.324 78.4206 406.292 78.6403C395.874 79.0796 385.345 79.8483 375.146 81.4957C374.488 81.4957 373.501 81.935 372.843 81.935C370.979 81.7153 369.334 81.276 368.456 79.0796C367.579 77.2126 368.018 75.5652 369.334 73.9179C372.405 70.4035 376.353 69.1954 380.739 69.1954C387.977 69.1954 395.106 68.5365 402.344 67.7677C411.666 66.7793 411.666 66.7793 411.666 57.2247C411.666 52.2826 410.46 47.5602 409.802 42.6181C409.582 39.9824 408.924 37.4564 409.363 34.601C410.021 31.3063 412.653 29 415.395 29C418.136 29.2196 419.781 31.0867 420.33 34.9305C420.988 42.728 421.536 50.4156 421.755 57.9934C421.755 65.0222 421.975 65.0221 428.774 65.0221C436.67 65.0221 449.282 65.2418 456.959 65.2418C460.249 65.2418 462.991 67.3284 462.991 69.7446C463.21 72.3803 459.481 76.9929 456.301 76.5536C447.966 75.1259 434.806 77.2126 426.252 76.9929C423.181 76.9929 422.304 78.201 422.523 80.9466C422.962 90.6111 423.181 98.8478 423.949 108.402C424.168 111.697 423.071 113.784 420.439 115.431C416.711 117.518 412.982 115.651 412.763 111.148C412.763 107.414 412.763 102.692 412.982 97.9692Z" fill="#F4844C"/>
<path d="M447.015 108.007C447.465 104.113 450.615 101.085 454.215 101.301C457.59 101.517 460.403 104.546 459.953 107.79C459.503 111.251 455.677 114.496 452.302 114.28C449.152 114.063 446.79 111.035 447.015 108.007Z" fill="#F4844C"/>
<path d="M386 38.568C386 40.841 381.556 45.0625 378.889 45.279C375.778 45.4955 373 42.4647 373 39.4339C373.222 35.9702 376.556 32.2899 379.111 32.2899C382.222 32.6146 386 36.0784 386 38.568Z" fill="#F4844C"/>
<path d="M444 37.0583C444.238 32.0056 446.978 29.068 451.624 29.303C454.602 29.538 457.223 32.5932 456.985 35.2958C456.747 39.0559 452.935 43.2861 449.718 43.2861C446.263 43.4036 444 40.8185 444 37.0583Z" fill="#F4844C"/>
<path d="M382.204 118.28C378.734 118.05 377 116.097 377 112.881C377 108.746 381.212 105.07 385.425 105.3C388.274 105.53 391 108.057 391 110.928C390.628 114.834 386.416 118.509 382.204 118.28Z" fill="#F4844C"/>
</g>
<defs>
<clipPath id="clip0_1268_2482">
<rect width="693.648" height="125" fill="white"/>
</clipPath>
</defs>
</svg>
