<svg width="504" height="236" viewBox="0 0 504 236" fill="none" xmlns="http://www.w3.org/2000/svg">
<path d="M39.5363 108.424C32.0803 113.002 25.3135 117.204 18.484 120.967C14.7874 123.099 10.5268 124.29 7.64468 120.214C4.76253 116.138 6.51689 111.623 11.2787 109.177C19.1609 104.827 26.8149 100.076 34.2106 94.9415C35.6572 94.2121 36.8189 93.0201 37.5114 91.5544C38.2038 90.0888 38.3873 88.4335 38.0326 86.8517C36.4662 76.6924 35.4636 66.4705 34.0225 56.3113C33.3333 51.4826 34.0226 47.4063 39.3483 46.4656C44.674 45.5249 46.9296 49.2877 47.6189 53.991C48.872 62.8333 49.9997 71.6756 51.1902 81.0823C52.2579 80.7285 53.2867 80.2662 54.2603 79.7027C68.9603 67.9134 81.4732 53.6273 91.227 37.498C99.1842 23.6388 94.7983 15.2355 78.6959 14.4203C54.9773 12.6613 31.4202 19.5187 12.3438 33.7352C8.96044 36.3064 5.51441 39.1284 1.88039 35.303C-1.75362 31.4776 0.752533 27.276 4.26123 24.5167C15.6046 14.9558 28.9112 8.01079 43.2369 4.17419C57.5626 0.337595 72.5564 -0.296397 87.1544 2.31704C92.617 2.80975 97.7448 5.16524 101.68 8.98949C105.615 12.8137 108.118 17.8747 108.77 23.3253C109.214 30.9447 107 38.4816 102.505 44.6471C91.0284 63.3446 76.1519 79.7232 58.6462 92.9347C56.3947 94.1907 54.585 96.1113 53.4637 98.4343C52.3425 100.757 51.9643 103.37 52.3806 105.916C53.7276 119.9 54.0417 133.965 53.3204 147.995C53.3204 150.002 53.3204 152.009 52.9445 154.266C52.5686 158.531 50.501 161.854 46.0525 161.604C41.6039 161.353 40.5388 157.59 40.7267 153.326C41.7204 138.354 41.3219 123.322 39.5363 108.424V108.424Z" fill="#F7F8F1"/>
<path d="M459.327 163.672C444.789 163.39 430.815 157.995 419.854 148.433C417.479 146.762 415.593 144.485 414.392 141.838C413.191 139.192 412.719 136.273 413.024 133.383C413.106 131.849 413.71 130.39 414.736 129.249C415.762 128.108 417.148 127.353 418.663 127.112C419.887 126.733 421.207 126.825 422.367 127.371C423.526 127.916 424.439 128.875 424.929 130.059C430.505 146.113 444.665 147.744 458.262 149.688C462.981 150.455 467.811 150.203 472.425 148.948C477.04 147.694 481.332 145.465 485.015 142.413C492.471 136.142 492.158 130.937 484.201 125.669C475.037 120.44 464.784 117.413 454.252 116.827C446.044 115.886 437.773 115.259 429.691 113.566C421.608 111.873 413.463 108.236 411.646 98.7662C410.923 94.3538 411.688 89.8258 413.821 85.8969C415.954 81.968 419.333 78.8617 423.425 77.068C442.222 66.4071 461.018 69.8562 479.815 77.068C480.558 77.2715 481.247 77.6339 481.837 78.13C482.426 78.626 482.9 79.2441 483.228 79.9416C483.556 80.639 483.728 81.3992 483.734 82.1698C483.74 82.9404 483.578 83.7031 483.261 84.4053C482.946 85.2347 482.459 85.9877 481.832 86.6148C481.205 87.2418 480.451 87.7285 479.622 88.0426C478.793 88.3568 477.907 88.4913 477.022 88.4373C476.137 88.3832 475.274 88.1418 474.489 87.729C465.476 84.617 455.937 83.3169 446.42 83.9035C439.501 83.769 432.788 86.2554 427.623 90.8645C423.488 94.7526 424.24 97.8882 429.503 99.6441C436.992 101.677 444.682 102.876 452.435 103.219C464.721 103.818 476.761 106.889 487.835 112.249C508.386 123.161 509.2 143.605 489.527 156.147C480.429 161.598 469.916 164.218 459.327 163.672Z" fill="#F7F8F1"/>
<path d="M235.208 116.326C231.574 96.0705 219.169 84.9706 203.004 86.4756C199.995 86.3022 197.004 87.0415 194.422 88.5967C191.839 90.1519 189.786 92.4507 188.53 95.1926C188.291 95.9266 187.89 96.5973 187.357 97.155C186.823 97.7127 186.171 98.1432 185.449 98.4143C184.727 98.6854 183.953 98.79 183.185 98.7209C182.417 98.6517 181.674 98.4102 181.011 98.0145C179.491 97.3378 178.266 96.1332 177.564 94.6232C176.861 93.1132 176.728 91.3998 177.19 89.7993C178.481 85.6927 181.191 82.1803 184.833 79.891C193.138 74.0749 203.393 71.7556 213.389 73.4329C223.385 75.1102 232.323 80.6498 238.279 88.8587C246.71 101.106 251.092 115.691 250.81 130.562C250.81 132.255 250.81 134.513 249.306 135.328C241.035 139.843 238.091 149.124 231.261 154.894C222.716 162.839 211.591 167.427 199.933 167.812C195.603 167.957 191.308 166.977 187.469 164.965C183.63 162.953 180.378 159.979 178.03 156.334C175.682 152.689 174.318 148.496 174.072 144.166C173.826 139.836 174.706 135.516 176.626 131.628C183.706 116.201 203.567 107.986 222.928 112.814C227.001 113.818 230.697 115.135 235.208 116.326ZM201.437 153.953C206.141 153.595 210.717 152.256 214.872 150.02C219.027 147.784 222.667 144.702 225.56 140.972C234.77 130.185 233.705 129.496 220.923 125.921C208.141 122.347 194.921 126.924 190.034 135.579C185.147 144.233 189.909 153.953 201.437 154.392V153.953Z" fill="#F7F8F1"/>
<path d="M358.703 152.51C358.679 153.692 358.343 154.847 357.73 155.857C357.118 156.867 356.249 157.698 355.213 158.264C354.176 158.831 353.009 159.113 351.828 159.083C350.647 159.052 349.496 158.711 348.49 158.092C345.031 156.114 341.831 153.712 338.966 150.943C331.322 143.982 323.803 137.021 316.535 129.746C313.34 126.611 311.46 126.924 308.954 130.436C303.127 138.275 297.112 145.989 291.097 153.639C288.09 157.465 284.205 160.538 279.631 156.712C275.058 152.887 277.627 148.685 280.634 144.922C286.9 137.021 292.726 128.931 299.117 121.218C301.999 117.706 301.749 115.636 298.616 112.501C287.839 101.965 277.439 91.1161 266.912 80.3925C263.404 76.8179 259.832 72.8044 264.657 68.2892C269.481 63.774 273.303 67.5368 276.749 71.1113C286.586 81.1451 296.611 90.9906 306.26 101.15C309.831 105.038 312.024 105.414 315.282 100.836C321.918 91.3956 329.52 82.6734 337.964 74.8113C341.598 71.4248 345.42 69.669 348.991 73.6825C352.562 77.696 349.931 80.9568 346.547 83.9043C338.064 92.4142 330.387 101.693 323.615 111.623C321.047 114.884 322.049 116.702 324.618 119.023C335.332 128.429 343.415 140.407 355.946 148.121C356.691 148.613 357.323 149.26 357.799 150.017C358.274 150.774 358.582 151.624 358.703 152.51V152.51Z" fill="#F7F8F1"/>
<path d="M100.061 142.916C99.1214 129.433 98.3068 115.95 97.179 102.467C96.7757 99.4696 97.3587 96.4222 98.8396 93.7859C100.32 91.1496 102.619 89.0677 105.387 87.8551C111.519 84.4444 118.163 82.0512 125.061 80.7687C128.785 79.8138 132.661 79.6094 136.465 80.1672C140.268 80.7249 143.923 82.0338 147.217 84.0177C150.511 86.0016 153.378 88.621 155.652 91.7236C157.925 94.8262 159.56 98.3502 160.461 102.091C161.714 105.728 161.839 109.114 157.955 111.246C154.07 113.379 151.689 111.246 149.371 108.863C148.589 107.883 147.897 106.833 147.303 105.728C138.406 91.9313 128.507 89.9874 114.033 98.5788C110.525 100.586 110.838 103.219 111.089 106.167C112.268 121.669 112.603 137.223 112.091 152.761C112.091 157.026 111.652 161.478 106.389 161.604C101.126 161.729 99.7479 157.402 99.7479 152.698V142.916H100.061Z" fill="#F7F8F1"/>
<path d="M393.727 124.228C393.727 130.499 392.724 141.787 392.16 153.012C392.16 157.841 390.281 161.917 384.955 161.666C379.629 161.416 379.629 156.963 379.755 152.699C380.946 131.42 380.569 110.082 378.627 88.8586C378.063 84.0926 379.128 79.8908 384.579 79.3891C390.03 78.8875 391.471 82.5248 392.098 86.9773C393.509 99.3409 394.053 111.788 393.727 124.228V124.228Z" fill="#F7F8F1"/>
<path d="M380.945 56.1232C376.622 55.1198 372.863 52.925 373.364 47.7827C373.38 46.5887 373.634 45.41 374.111 44.3156C374.588 43.2213 375.279 42.2333 376.143 41.4097C377.006 40.5861 378.026 39.9435 379.141 39.5195C380.256 39.0954 381.445 38.8985 382.637 38.9404C383.646 38.8418 384.665 38.9758 385.614 39.3323C386.564 39.6888 387.419 40.2581 388.115 40.9967C388.81 41.7353 389.328 42.6234 389.627 43.5932C389.926 44.5629 390 45.5885 389.842 46.5911C389.863 49.0186 388.951 51.3611 387.295 53.135C385.64 54.9088 383.366 55.9786 380.945 56.1232Z" fill="#F7F8F1"/>
<g clip-path="url(#clip0_1508_2094)">
<path d="M300.323 212.517C300.163 212.606 300.102 212.62 300.074 212.659C298.601 214.534 296.711 215.428 294.308 214.94C291.577 214.385 289.634 212.868 288.792 210.165C287.794 206.957 288.332 203.848 289.537 200.799C289.726 200.325 289.894 199.848 290.14 199.384C290.985 197.718 292.258 196.813 294.205 196.473C298.302 195.766 301.693 198.305 302.52 200.909C302.605 201.181 303.137 202.858 303.122 203.332C302.955 208.135 303.753 212.861 304.192 217.618C304.445 220.288 304.745 222.973 304.681 225.647C304.638 227.49 304.139 229.354 303.611 231.144C302.684 234.348 297.906 236.987 294.504 235.813C293.215 235.346 291.959 234.792 290.746 234.154C290.293 233.87 289.906 233.496 289.609 233.054C289.371 232.773 289.241 232.418 289.241 232.051C289.241 231.684 289.371 231.329 289.609 231.048C289.852 230.772 290.188 230.592 290.554 230.539C290.92 230.487 291.293 230.566 291.605 230.762C292.08 231.017 292.497 231.374 292.967 231.636C294.622 232.537 296.287 233.199 298.195 232.255C298.824 231.97 299.382 231.552 299.831 231.03C300.279 230.508 300.607 229.895 300.79 229.234C301.362 227.155 301.534 224.988 301.297 222.846C301.001 219.432 300.659 216.019 300.323 212.517ZM291.57 206.384C291.57 207.619 291.849 208.839 292.386 209.953C293.292 211.814 296.02 212.344 297.136 210.901C299.154 208.284 299.824 205.312 298.901 202.101C298.544 200.849 297.56 200.106 296.308 199.777C294.968 199.423 293.235 200.13 292.743 201.248C292.008 202.865 291.609 204.611 291.57 206.384V206.384Z" fill="#F7F8F1"/>
<path d="M276.262 207.778C275.678 205.068 274.975 202.472 273.442 200.222C272.579 198.942 271.873 198.808 270.746 199.869C269.956 200.662 269.301 201.577 268.807 202.578C268.29 203.579 267.737 204.074 266.86 203.834C266.047 203.604 265.566 202.73 265.879 201.733C266.728 199.052 268.375 197.032 271.121 196.105C272.722 195.568 274.109 196.162 275.261 197.294C276.986 198.988 277.928 201.139 278.577 203.395C279.154 205.404 279.546 207.466 280.003 209.5C280.043 209.74 280.103 209.977 280.181 210.208C280.311 210.52 280.353 210.861 280.302 211.195C280.252 211.529 280.112 211.843 279.896 212.104C279.78 212.285 279.644 212.452 279.489 212.602C276.526 215.199 273.278 217.282 269.313 217.993C267.944 218.255 266.527 218.092 265.255 217.526C263.259 216.635 262.046 215.114 261.996 212.928C261.926 211.855 262.173 210.786 262.708 209.851C263.242 208.916 264.041 208.158 265.006 207.668C266.946 206.582 269.067 206.582 271.178 206.823C272.675 206.996 274.145 207.389 275.631 207.682C275.806 207.718 275.988 207.739 276.262 207.778ZM275.731 211.315C273.36 210.473 270.989 209.9 268.497 210.112C267.852 210.169 267.222 210.336 266.635 210.607C266.182 210.826 265.816 211.188 265.595 211.637C265.374 212.086 265.311 212.595 265.416 213.083C265.555 213.883 266.297 214.498 267.356 214.636C267.783 214.7 268.216 214.71 268.646 214.668C271.378 214.367 273.538 212.839 275.721 211.311L275.731 211.315Z" fill="#F7F8F1"/>
<path d="M286.706 228.809C286.706 229.287 286.728 229.609 286.706 229.931C286.697 230.353 286.526 230.755 286.228 231.057C285.93 231.358 285.527 231.534 285.102 231.551C284.688 231.558 284.288 231.409 283.981 231.134C283.674 230.86 283.483 230.48 283.447 230.072C283.29 228.47 283.226 226.857 283.116 225.247C282.809 220.826 282.502 216.405 282.196 211.983C281.957 208.499 281.736 205.012 281.483 201.528C280.951 193.831 280.898 186.12 280.994 178.402C280.983 178.08 281.002 177.758 281.051 177.44C281.094 177.13 281.244 176.844 281.477 176.632C281.709 176.42 282.009 176.296 282.324 176.28C282.637 176.228 282.959 176.289 283.231 176.452C283.503 176.615 283.707 176.869 283.807 177.168C283.966 177.623 284.053 178.1 284.064 178.582C284.253 184.68 284.346 190.782 284.624 196.873C284.873 202.32 285.337 207.756 285.694 213.2C285.986 217.65 286.277 222.099 286.567 226.549C286.603 227.359 286.66 228.162 286.706 228.809Z" fill="#F7F8F1"/>
<path d="M306.816 200.895C307.529 199.342 308.535 198.001 310.382 197.601C315.374 196.54 319.931 199.791 320.555 204.817C320.916 207.55 320.459 210.328 319.239 212.804C317.281 216.829 313.117 217.158 310.264 216.115C308.164 215.368 307.119 213.6 306.57 211.605C305.251 206.504 306.121 202.447 306.816 200.895ZM310.114 211.506C310.5 211.994 311.444 213.009 312.222 213.119C314.6 213.473 315.837 212.991 316.779 210.795C317.499 209.075 317.761 207.2 317.538 205.351C317.21 202.27 314.814 200.421 311.708 200.803C310.664 200.933 310.186 201.98 309.665 203.049C309.145 204.117 308.478 209.097 310.114 211.52V211.506Z" fill="#F7F8F1"/>
<path d="M361.325 212.886C361.483 212.846 361.637 212.792 361.785 212.723C364.245 211.114 366.716 209.512 369.155 207.871C369.631 207.515 370.054 207.094 370.413 206.622C371.986 204.74 371.971 202.498 370.164 200.825C367.219 198.098 363.746 196.46 359.624 196.509C359.406 196.509 359.189 196.541 358.975 196.534C358.62 196.549 358.271 196.435 357.996 196.213C357.72 195.99 357.535 195.676 357.477 195.328C357.404 194.979 357.47 194.615 357.664 194.314C357.857 194.014 358.161 193.8 358.511 193.719C359.327 193.516 360.168 193.434 361.007 193.475C364.992 193.715 368.791 195.226 371.84 197.783C375.683 200.92 375.94 205.773 372.496 209.324C371.583 210.282 370.561 211.131 369.451 211.853C366.898 213.47 364.259 214.955 361.674 216.522C361.558 216.606 361.459 216.711 361.384 216.833C361.308 216.954 361.258 217.089 361.235 217.23C360.829 221.697 360.462 226.165 360.052 230.632C359.962 231.54 359.796 232.439 359.556 233.32C359.521 233.521 359.445 233.712 359.333 233.883C359.221 234.054 359.075 234.2 358.905 234.313C358.734 234.426 358.542 234.504 358.34 234.541C358.138 234.578 357.931 234.574 357.73 234.53C356.932 234.36 356.5 233.628 356.639 232.644C357.719 224.487 358.13 216.257 357.869 208.033C357.82 205.886 357.748 203.739 357.68 201.589C357.652 201.224 357.759 200.861 357.981 200.569C358.203 200.276 358.524 200.074 358.886 200.001C359.315 199.907 359.764 199.975 360.147 200.19C360.529 200.406 360.818 200.754 360.957 201.168C361.097 201.687 361.168 202.222 361.168 202.759C361.218 205.823 361.246 208.889 361.282 211.956C361.275 212.253 361.303 212.54 361.325 212.886Z" fill="#F7F8F1"/>
<path d="M407.884 187.104C405.51 187.26 403.135 187.458 400.753 187.61C400.486 187.61 400.215 187.642 399.944 187.642C398.838 187.642 398.136 187.079 398.065 186.156C397.993 185.233 398.582 184.526 399.658 184.388C400.596 184.257 401.666 184.211 402.611 184.154C405.014 184.009 407.353 184.112 409.685 183.627C411.721 183.206 414.581 183.691 416.552 183.479C418.524 183.266 419.619 183.263 421.612 183.075C422.496 182.994 423.37 182.782 424.254 182.658C425.235 182.524 426.037 183.012 426.18 183.854C426.322 184.695 425.844 185.325 424.871 185.576C424.716 185.625 424.557 185.662 424.397 185.686C421.148 186.071 417.904 186.485 414.648 186.814C413.251 186.952 413.197 186.874 413.261 188.254C413.547 194.239 413.889 200.22 414.153 206.205C414.327 210.205 414.427 214.206 414.531 218.21C414.559 219.38 413.896 220.13 412.93 220.166C411.963 220.201 411.265 219.49 411.215 218.305C411.101 215.673 411.079 213.038 410.969 210.41C410.73 204.613 410.452 198.816 410.216 193.018C410.145 191.275 410.174 189.527 410.152 187.78C410.059 186.687 409.254 187.012 407.884 187.104Z" fill="#F7F8F1"/>
<path d="M388.787 207.619C388.231 205.051 387.546 202.572 386.141 200.358C385.146 198.791 384.376 198.639 383.064 199.937C382.349 200.694 381.763 201.561 381.328 202.505C380.832 203.502 380.233 203.987 379.363 203.722C379.163 203.653 378.978 203.546 378.821 203.405C378.663 203.265 378.536 203.094 378.446 202.903C378.357 202.713 378.307 202.506 378.299 202.296C378.292 202.086 378.328 201.877 378.404 201.681C379.252 198.936 380.928 196.877 383.752 195.979C385.296 195.487 386.633 196.078 387.746 197.157C389.486 198.84 390.431 200.991 391.087 203.248C391.668 205.253 392.06 207.315 392.534 209.353C392.582 209.615 392.647 209.874 392.731 210.127C392.851 210.429 392.89 210.756 392.843 211.077C392.797 211.398 392.665 211.701 392.463 211.956C392.333 212.159 392.18 212.346 392.007 212.515C389.058 215.083 385.838 217.159 381.902 217.874C380.508 218.147 379.062 217.984 377.766 217.407C375.772 216.505 374.585 214.973 374.535 212.773C374.475 211.716 374.724 210.665 375.251 209.745C375.779 208.825 376.563 208.076 377.509 207.588C379.495 206.463 381.666 206.473 383.831 206.732C385.46 206.926 387.068 207.305 388.787 207.619ZM388.391 211.245C388.233 211.138 388.063 211.05 387.885 210.983C385.874 210.63 383.87 210.173 381.841 209.965C380.978 209.876 380.016 210.18 379.188 210.52C378.197 210.923 377.787 211.967 377.972 212.996C378.115 213.792 378.864 214.411 379.923 214.545C380.35 214.606 380.784 214.615 381.214 214.573C383.931 214.262 386.102 212.727 388.391 211.245V211.245Z" fill="#F7F8F1"/>
<path d="M485.226 207.457C484.667 204.875 483.985 202.374 482.549 200.149C481.568 198.628 480.823 198.483 479.525 199.764C478.804 200.516 478.214 201.381 477.778 202.324C477.279 203.329 476.708 203.817 475.824 203.566C475.014 203.336 474.537 202.459 474.857 201.444C475.71 198.77 477.353 196.746 480.106 195.827C481.707 195.293 483.091 195.89 484.242 197.022C485.95 198.699 486.884 200.825 487.533 203.035C488.122 205.066 488.514 207.153 488.995 209.218C489.037 209.458 489.098 209.695 489.177 209.926C489.302 210.225 489.345 210.552 489.302 210.873C489.259 211.194 489.131 211.498 488.931 211.754C488.801 211.96 488.646 212.15 488.471 212.32C485.533 214.892 482.306 216.965 478.377 217.69C476.982 217.966 475.536 217.805 474.237 217.23C472.24 216.335 471.046 214.81 470.989 212.614C470.923 211.558 471.165 210.506 471.687 209.584C472.209 208.662 472.988 207.908 473.93 207.414C475.913 206.282 478.088 206.29 480.252 206.548C481.871 206.774 483.479 207.128 485.226 207.457ZM484.945 210.994C482.338 210.184 479.953 209.604 477.475 209.823C476.823 209.885 476.188 210.061 475.599 210.343C475.146 210.561 474.779 210.923 474.558 211.372C474.337 211.821 474.274 212.33 474.38 212.819C474.515 213.618 475.26 214.234 476.319 214.375C476.747 214.439 477.18 214.45 477.61 214.407C480.349 214.099 482.509 212.571 484.93 211.019L484.945 210.994Z" fill="#F7F8F1"/>
<path d="M463.783 186.942C463.783 183.907 463.783 180.869 463.783 177.83C463.783 176.726 464.257 176.093 465.102 176.008C465.947 175.923 466.614 176.493 466.792 177.582C466.837 177.901 466.861 178.222 466.863 178.544C467.045 184.642 467.127 190.744 467.423 196.838C467.719 202.933 468.233 209.059 468.635 215.171C468.935 219.755 469.22 224.341 469.491 228.927C469.577 230.441 468.981 231.251 467.905 231.286C466.885 231.322 466.246 230.579 466.143 229.104C465.929 225.995 465.787 222.882 465.569 219.773C465.284 215.528 464.945 211.309 464.667 207.071C464.401 203.025 464.163 198.975 463.954 194.921C463.822 192.265 463.865 189.616 463.783 186.942C463.811 186.942 463.754 186.945 463.783 186.942Z" fill="#F7F8F1"/>
<path d="M447.837 198.992C447.862 198.805 448.08 197.974 448.144 197.797C448.404 197.089 448.857 196.64 449.663 196.711C450.008 196.735 450.332 196.887 450.57 197.136C450.807 197.386 450.942 197.715 450.946 198.059C450.981 198.565 450.943 199.073 450.836 199.569C450.129 203.385 450.163 207.3 450.936 211.103C450.992 211.394 451.066 211.681 451.157 211.963C451.495 212.982 451.717 214.252 452.94 214.46C453.591 214.565 454.259 214.484 454.865 214.226C455.471 213.968 455.991 213.544 456.363 213.003C457.055 212.045 457.556 210.964 457.839 209.82C458.634 206.41 458.37 202.989 457.532 199.604C457.42 199.218 457.335 198.825 457.279 198.426C457.204 197.984 457.298 197.529 457.543 197.152C457.789 196.775 458.168 196.503 458.605 196.389C459.415 196.209 460.224 196.651 460.492 197.655C460.911 199.211 461.234 200.79 461.458 202.385C461.896 205.639 461.782 208.882 460.766 212.034C459.86 214.842 458.17 216.954 455.232 217.923C452.551 218.804 450.429 218.061 448.996 215.638C447.926 213.809 447.516 211.779 447.324 209.706C447.21 208.479 447.185 207.23 447.12 206.007C447.11 203.237 447.477 201.55 447.837 198.992Z" fill="#F7F8F1"/>
<path d="M430.444 206.947C430.761 209.593 431.656 212.352 434.805 213.788C436.727 214.662 438.542 214.389 440.032 212.911C440.813 212.133 441.501 211.259 442.225 210.435C442.949 209.611 443.722 209.423 444.432 209.865C445.142 210.308 445.602 211.401 445.081 212.207C443.359 214.856 441.465 217.4 438.021 217.927C434.676 218.439 431.959 217.046 429.931 214.577C426.768 210.75 425.502 204.181 429.792 199.456C431.995 197.026 434.759 196.357 437.896 196.715C438.271 196.757 438.649 196.806 439.023 196.86C440.093 197.012 440.645 197.659 440.574 198.66C440.562 198.882 440.506 199.1 440.408 199.301C440.31 199.502 440.173 199.681 440.004 199.828C439.835 199.975 439.638 200.087 439.425 200.157C439.212 200.227 438.987 200.255 438.763 200.237C438.303 200.237 437.846 200.146 437.386 200.11C433.339 199.785 430.444 202.452 430.444 206.947Z" fill="#F7F8F1"/>
<path d="M400.161 195.158C401.434 195.158 403.41 195.682 405.014 196.039C405.613 196.203 406.171 196.487 406.654 196.874C406.983 197.098 407.217 197.434 407.31 197.819C407.404 198.204 407.35 198.609 407.161 198.957C406.786 199.629 405.991 199.838 405.093 199.611C403.749 199.219 402.379 198.925 400.992 198.731C399.944 198.621 398.853 198.858 397.783 198.968C397.323 199.014 397.198 199.286 397.23 199.756C397.508 203.453 397.776 207.149 398.001 210.849C398.097 212.455 398.1 214.071 398.097 215.681C398.097 216.689 397.526 217.301 396.671 217.332C395.815 217.364 395.202 216.827 395.116 215.822C394.984 214.244 394.966 212.639 394.834 211.079C394.56 207.789 394.235 204.503 393.943 201.214C393.875 200.464 393.868 199.71 393.814 198.961C393.711 197.627 394.356 196.761 395.537 196.237C397.002 195.61 398.568 195.244 400.161 195.158V195.158Z" fill="#F7F8F1"/>
<path d="M496.715 194.836C498.498 194.836 499.924 195.37 501.482 195.731C502.08 195.898 502.637 196.187 503.115 196.58C503.44 196.811 503.666 197.153 503.749 197.541C503.832 197.928 503.766 198.332 503.564 198.674C503.183 199.307 502.416 199.509 501.557 199.297C500.186 198.903 498.79 198.604 497.378 198.402C496.33 198.292 495.239 198.543 494.169 198.66C493.741 198.706 493.627 198.964 493.659 199.399C493.937 203.149 494.215 206.898 494.44 210.651C494.536 212.228 494.533 213.834 494.522 215.401C494.522 216.363 493.955 216.957 493.149 217.007C492.286 217.06 491.648 216.526 491.562 215.535C491.427 213.93 491.409 212.317 491.274 210.711C490.996 207.421 490.671 204.135 490.379 200.846C490.314 200.1 490.304 199.346 490.254 198.593C490.168 197.295 490.799 196.446 491.948 195.929C493.455 195.276 495.071 194.906 496.715 194.836V194.836Z" fill="#F7F8F1"/>
<path d="M419.897 202.837C419.897 202.006 419.865 201.171 419.897 200.34C419.943 199.314 420.553 198.66 421.395 198.653C422.236 198.646 422.821 199.226 422.906 200.234C423.217 203.927 423.502 207.623 423.794 211.316C423.876 212.334 423.976 213.35 424.044 214.368C424.092 214.794 424.085 215.225 424.022 215.649C423.968 216.013 423.784 216.345 423.504 216.586C423.225 216.828 422.867 216.962 422.496 216.965C422.112 216.995 421.73 216.882 421.425 216.647C421.121 216.412 420.916 216.072 420.853 215.695C420.685 214.662 420.577 213.62 420.528 212.575C420.321 209.331 420.147 206.084 419.958 202.837H419.897Z" fill="#F7F8F1"/>
<path d="M421.605 193.015C421.815 193.021 422.022 193.07 422.213 193.157C422.404 193.243 422.576 193.367 422.718 193.521C422.861 193.674 422.971 193.854 423.042 194.05C423.114 194.246 423.145 194.455 423.135 194.663C423.143 195.057 422.994 195.439 422.721 195.725C422.447 196.012 422.07 196.179 421.673 196.191C421.222 196.196 420.787 196.027 420.459 195.721C420.131 195.414 419.936 194.993 419.915 194.546C419.951 194.127 420.145 193.736 420.458 193.452C420.771 193.169 421.181 193.012 421.605 193.015Z" fill="#F7F8F1"/>
<path d="M337.917 213.645C337.917 212.523 337.917 211.43 337.917 210.25C337.859 208.638 337.743 208.523 336.153 208.581C333.407 208.696 330.631 208.897 327.943 209.329C327.769 209.329 327.509 209.444 327.336 209.444C326.844 209.387 326.41 209.271 326.179 208.696C325.948 208.207 326.064 207.775 326.41 207.344C327.22 206.423 328.261 206.106 329.417 206.106C331.325 206.106 333.204 205.934 335.112 205.732C337.57 205.473 337.57 205.473 337.57 202.97C337.57 201.675 337.252 200.438 337.078 199.143C337.021 198.452 336.847 197.79 336.963 197.042C337.136 196.179 337.83 195.575 338.553 195.575C339.276 195.632 339.709 196.121 339.854 197.129C340.027 199.172 340.172 201.186 340.23 203.171C340.23 205.013 340.287 205.013 342.08 205.013C344.161 205.013 347.486 205.07 349.51 205.07C350.377 205.07 351.1 205.617 351.1 206.25C351.158 206.941 350.175 208.149 349.336 208.034C347.139 207.66 343.67 208.207 341.415 208.149C340.605 208.149 340.374 208.466 340.432 209.185C340.548 211.717 340.605 213.875 340.808 216.379C340.866 217.242 340.577 217.789 339.883 218.22C338.9 218.767 337.917 218.278 337.859 217.098C337.859 216.12 337.859 214.883 337.917 213.645Z" fill="#FF6F61"/>
<path d="M346.888 216.275C347.007 215.255 347.837 214.461 348.786 214.518C349.676 214.575 350.418 215.368 350.299 216.218C350.18 217.125 349.172 217.975 348.282 217.919C347.452 217.862 346.829 217.069 346.888 216.275Z" fill="#FF6F61"/>
<path d="M330.804 198.082C330.804 198.677 329.632 199.783 328.929 199.84C328.109 199.897 327.377 199.103 327.377 198.308C327.436 197.401 328.314 196.437 328.988 196.437C329.808 196.522 330.804 197.429 330.804 198.082Z" fill="#FF6F61"/>
<path d="M346.094 197.686C346.156 196.362 346.879 195.592 348.104 195.654C348.889 195.716 349.58 196.516 349.517 197.224C349.454 198.209 348.449 199.318 347.601 199.318C346.69 199.349 346.094 198.671 346.094 197.686Z" fill="#FF6F61"/>
<path d="M329.803 218.967C328.889 218.907 328.431 218.395 328.431 217.552C328.431 216.469 329.542 215.506 330.652 215.566C331.403 215.626 332.122 216.288 332.122 217.041C332.024 218.064 330.914 219.027 329.803 218.967Z" fill="#FF6F61"/>
</g>
<defs>
<clipPath id="clip0_1508_2094">
<rect width="242" height="60" fill="white" transform="translate(262 176)"/>
</clipPath>
</defs>
</svg>
