<svg width="233" height="58" viewBox="0 0 233 58" fill="none" xmlns="http://www.w3.org/2000/svg">
<g clip-path="url(#clip0_2118_3173)">
<path d="M36.82 35.3004C36.6658 35.3859 36.6076 35.3996 36.5802 35.4372C35.1653 37.2493 33.3497 38.1144 31.0408 37.6426C28.4166 37.1057 26.5496 35.6389 25.7411 33.0266C24.7819 29.9254 25.2992 26.9199 26.4571 23.9726C26.6387 23.5144 26.7997 23.0528 27.0361 22.6049C27.848 20.9944 29.071 20.1191 30.9414 19.7909C34.8776 19.107 38.1355 21.562 38.9302 24.0786C39.0125 24.3418 39.5229 25.9625 39.5092 26.4207C39.3482 31.064 40.1155 35.6321 40.5369 40.2309C40.7801 42.8124 41.0679 45.4076 41.0062 47.9925C40.9651 49.7739 40.4855 51.5758 39.9785 53.3059C39.0878 56.4037 34.4973 58.9545 31.2292 57.8193C29.9902 57.368 28.7838 56.8322 27.6184 56.2157C27.1835 55.9416 26.8112 55.5793 26.5256 55.1523C26.2973 54.8807 26.1721 54.5375 26.1721 54.183C26.1721 53.8284 26.2973 53.4852 26.5256 53.2136C26.7598 52.9467 27.0818 52.7721 27.4336 52.7213C27.7853 52.6705 28.1437 52.7469 28.444 52.9367C28.8997 53.1829 29.3005 53.5282 29.7527 53.7812C31.3422 54.6531 32.942 55.2925 34.7748 54.3796C35.3793 54.1046 35.9159 53.7006 36.3468 53.1961C36.7777 52.6916 37.0924 52.0988 37.2688 51.4596C37.818 49.45 37.9831 47.3551 37.7552 45.2845C37.4709 41.9849 37.142 38.6854 36.82 35.3004ZM28.4098 29.3715C28.4104 30.5655 28.6785 31.7442 29.1943 32.8215C30.0644 34.62 32.6851 35.1329 33.7574 33.7378C35.6963 31.2076 36.3404 28.3355 35.4531 25.2308C35.1105 24.0204 34.165 23.3024 32.9626 22.9844C31.6745 22.6425 30.0096 23.3263 29.5369 24.4068C28.8308 25.9693 28.4475 27.6578 28.4098 29.3715V29.3715Z" fill="#143246"/>
<path d="M13.7032 30.7187C13.1413 28.0996 12.4665 25.5899 10.9934 23.4153C10.1644 22.1776 9.48607 22.0476 8.40354 23.0734C7.6444 23.84 7.015 24.7246 6.53993 25.6925C6.0432 26.6601 5.51221 27.1388 4.66948 26.9063C3.88841 26.6841 3.42593 25.8395 3.7274 24.8753C4.54272 22.2836 6.12542 20.3312 8.76324 19.4354C10.3014 18.9157 11.634 19.4901 12.7405 20.5842C14.3986 22.222 15.303 24.3009 15.9265 26.4824C16.4814 28.4245 16.8583 30.4179 17.2968 32.3839C17.3356 32.616 17.3929 32.8447 17.4681 33.0677C17.5926 33.3694 17.6328 33.6992 17.5846 34.0219C17.5363 34.3446 17.4013 34.6482 17.194 34.9004C17.083 35.0757 16.9519 35.2375 16.8035 35.3825C13.9567 37.8922 10.8358 39.9062 7.02639 40.5934C5.71132 40.8469 4.34991 40.6893 3.12789 40.1421C1.20948 39.2804 0.044723 37.8102 -0.00323745 35.6971C-0.0713021 34.6604 0.166222 33.6265 0.680024 32.723C1.19383 31.8195 1.96142 31.0859 2.88809 30.6128C4.7517 29.5631 6.79001 29.5631 8.81805 29.7956C10.2569 29.9631 11.6683 30.3426 13.0968 30.6264C13.2647 30.6606 13.4394 30.6811 13.7032 30.7187ZM13.1927 34.138C10.9146 33.3242 8.63649 32.7703 6.24189 32.9754C5.62249 33.0301 5.01736 33.1921 4.45366 33.4541C4.01855 33.6651 3.66676 34.0154 3.45441 34.4492C3.24206 34.883 3.18138 35.3753 3.28205 35.8476C3.41565 36.6203 4.12821 37.2152 5.14566 37.3486C5.55616 37.4101 5.97272 37.4204 6.38577 37.3794C9.00989 37.0887 11.0859 35.6116 13.1825 34.1345L13.1927 34.138Z" fill="#143246"/>
<path d="M23.7369 51.0492C23.7369 51.5108 23.7575 51.822 23.7369 52.1331C23.7285 52.5411 23.5642 52.9305 23.2776 53.2216C22.9911 53.5127 22.6039 53.6835 22.1954 53.6991C21.7984 53.7058 21.4136 53.5621 21.1187 53.2968C20.8237 53.0316 20.6404 52.6646 20.6058 52.2699C20.4551 50.721 20.3934 49.1618 20.2872 47.6061C19.9926 43.3321 19.698 39.0581 19.4034 34.7841C19.1738 31.4162 18.9615 28.0448 18.7182 24.6769C18.2078 17.2367 18.1564 9.78283 18.2489 2.32212C18.2379 2.01108 18.2563 1.6997 18.3037 1.3921C18.3448 1.09226 18.4895 0.816151 18.7127 0.611405C18.936 0.406658 19.2239 0.286123 19.5267 0.270598C19.8277 0.220851 20.1366 0.279958 20.3979 0.437285C20.6591 0.594613 20.8556 0.839831 20.9518 1.12882C21.1045 1.5692 21.1878 2.0306 21.1985 2.4965C21.38 8.39121 21.4691 14.2893 21.7363 20.1772C21.9761 25.4428 22.4215 30.6981 22.764 35.9603C23.0449 40.2616 23.3247 44.563 23.6033 48.8644C23.6376 49.6474 23.6924 50.4235 23.7369 51.0492Z" fill="#143246"/>
<path d="M43.0584 24.0649C43.7435 22.5639 44.7096 21.268 46.4841 20.8817C51.2801 19.8559 55.6582 22.9982 56.2578 27.8568C56.6052 30.4984 56.1656 33.1837 54.9937 35.5774C53.1129 39.4685 49.1117 39.7865 46.3711 38.7778C44.3533 38.0563 43.3496 36.3467 42.822 34.4183C41.5545 29.4878 42.3903 25.566 43.0584 24.0649ZM46.2272 34.3226C46.5972 34.7944 47.505 35.7757 48.2518 35.8817C50.5368 36.2236 51.7255 35.7586 52.6299 33.6353C53.3223 31.973 53.5737 30.1606 53.3596 28.3731C53.0444 25.395 50.7423 23.6068 47.7585 23.976C46.7547 24.1026 46.2957 25.1146 45.7955 26.1472C45.2954 27.1798 44.6548 31.9941 46.2272 34.3362V34.3226Z" fill="#143246"/>
<path d="M95.4281 35.6565C95.5799 35.6177 95.7278 35.5651 95.87 35.4993C98.2338 33.9435 100.608 32.3946 102.951 30.8081C103.408 30.464 103.816 30.0577 104.16 29.6011C105.671 27.7821 105.657 25.6143 103.92 23.997C101.091 21.3608 97.7542 19.7777 93.794 19.8256C93.585 19.8256 93.3761 19.8564 93.1705 19.8495C92.8294 19.8641 92.4947 19.7536 92.2296 19.5388C91.9646 19.324 91.7875 19.0198 91.7317 18.6836C91.6609 18.3461 91.7252 17.9944 91.9109 17.7037C92.0965 17.413 92.3888 17.2063 92.7252 17.1279C93.5086 16.9325 94.3166 16.853 95.1232 16.8919C98.9513 17.1244 102.602 18.5851 105.531 21.0565C109.224 24.0894 109.47 28.7805 106.161 32.2134C105.285 33.1393 104.303 33.9598 103.235 34.6581C100.783 36.2207 98.2475 37.6568 95.7638 39.1715C95.6519 39.2522 95.5571 39.3541 95.4848 39.4715C95.4125 39.5888 95.3641 39.7193 95.3424 39.8553C94.9519 44.1738 94.599 48.4922 94.2051 52.8107C94.1187 53.6885 93.9594 54.5577 93.7289 55.4093C93.6952 55.6033 93.6223 55.7884 93.5148 55.9534C93.4072 56.1184 93.2671 56.2599 93.1031 56.3693C92.9391 56.4786 92.7545 56.5536 92.5605 56.5896C92.3666 56.6256 92.1674 56.6219 91.9749 56.5787C91.2076 56.4145 90.793 55.7068 90.9266 54.7562C91.964 46.8708 92.3593 38.9145 92.1085 30.9654C92.0606 28.8899 91.9921 26.8145 91.927 24.7356C91.8997 24.3829 92.0022 24.0323 92.2154 23.7497C92.4286 23.4671 92.7377 23.2717 93.0849 23.2004C93.4977 23.1103 93.9292 23.1757 94.2966 23.384C94.664 23.5923 94.9413 23.9287 95.0752 24.3287C95.2095 24.8306 95.2775 25.3479 95.2773 25.8674C95.3253 28.8284 95.3527 31.7928 95.387 34.7573C95.3801 35.0445 95.4075 35.3215 95.4281 35.6565Z" fill="#143246"/>
<path d="M140.161 10.7339C137.88 10.8843 135.598 11.0758 133.31 11.2228C133.053 11.2228 132.793 11.2536 132.532 11.2536C131.47 11.2536 130.795 10.7099 130.727 9.81752C130.658 8.92511 131.224 8.24127 132.258 8.10792C133.159 7.98141 134.187 7.93696 135.095 7.88225C137.404 7.74207 139.651 7.84122 141.891 7.37279C143.847 6.96591 146.595 7.43434 148.489 7.22919C150.384 7.02403 151.435 7.02061 153.35 6.8394C154.2 6.76075 155.039 6.5556 155.889 6.43593C156.831 6.306 157.602 6.77785 157.739 7.59162C157.876 8.40539 157.417 9.01401 156.482 9.25677C156.333 9.30378 156.18 9.33922 156.026 9.36277C152.905 9.73546 149.788 10.1355 146.66 10.4535C145.317 10.5868 145.266 10.5116 145.327 11.8451C145.601 17.6304 145.93 23.4123 146.184 29.1976C146.352 33.0647 146.448 36.9318 146.547 40.8024C146.574 41.9341 145.937 42.659 145.009 42.6932C144.08 42.7274 143.409 42.0401 143.361 40.8947C143.251 38.3508 143.231 35.8035 143.125 33.263C142.895 27.6589 142.628 22.0549 142.402 16.4508C142.333 14.7651 142.361 13.076 142.34 11.3869C142.251 10.3304 141.477 10.645 140.161 10.7339Z" fill="#143246"/>
<path d="M121.813 30.5655C121.279 28.0832 120.621 25.6863 119.271 23.5459C118.315 22.0312 117.575 21.8842 116.315 23.139C115.628 23.8709 115.064 24.7093 114.646 25.6214C114.17 26.5856 113.595 27.054 112.759 26.7976C112.566 26.7316 112.389 26.6276 112.238 26.4917C112.086 26.3558 111.964 26.1908 111.878 26.0067C111.792 25.8225 111.744 25.6229 111.737 25.4198C111.73 25.2167 111.764 25.0143 111.837 24.8247C112.653 22.1714 114.263 20.1814 116.976 19.3129C118.459 18.8377 119.744 19.4087 120.813 20.4515C122.484 22.0791 123.392 24.1579 124.023 26.3394C124.581 28.2781 124.958 30.2715 125.413 32.2409C125.459 32.4946 125.522 32.7448 125.602 32.9898C125.718 33.281 125.755 33.5977 125.71 33.9079C125.665 34.2182 125.539 34.5112 125.345 34.7575C125.22 34.9536 125.073 35.1349 124.906 35.2977C122.073 37.7801 118.98 39.7871 115.198 40.4778C113.858 40.7423 112.47 40.5845 111.224 40.0265C109.309 39.1546 108.168 37.6741 108.12 35.5473C108.063 34.526 108.301 33.5097 108.808 32.6205C109.315 31.7313 110.068 31.0071 110.977 30.5348C112.885 29.4475 114.972 29.4577 117.051 29.7073C118.617 29.8954 120.162 30.2612 121.813 30.5655ZM121.433 34.0702C121.281 33.9671 121.118 33.8822 120.946 33.8172C119.014 33.4753 117.089 33.0342 115.14 32.8325C114.311 32.747 113.386 33.041 112.591 33.3693C111.639 33.7591 111.245 34.7677 111.423 35.7627C111.56 36.532 112.279 37.1304 113.297 37.2603C113.707 37.319 114.124 37.3282 114.537 37.2877C117.147 36.9868 119.233 35.5029 121.433 34.0702V34.0702Z" fill="#143246"/>
<path d="M214.469 30.4081C213.932 27.9121 213.277 25.4947 211.897 23.344C210.955 21.8737 210.239 21.7336 208.992 22.9713C208.299 23.6986 207.732 24.535 207.313 25.4468C206.833 26.4179 206.285 26.8897 205.436 26.647C204.658 26.4247 204.199 25.5767 204.507 24.5954C205.326 22.0105 206.905 20.0547 209.55 19.1657C211.088 18.6494 212.417 19.2273 213.524 20.3214C215.165 21.9421 216.062 23.9971 216.686 26.1341C217.251 28.0967 217.628 30.114 218.09 32.1108C218.131 32.343 218.189 32.5716 218.265 32.7947C218.385 33.084 218.427 33.3999 218.385 33.7103C218.344 34.0207 218.221 34.3146 218.029 34.5624C217.904 34.7616 217.755 34.9452 217.587 35.1095C214.764 37.5953 211.664 39.5989 207.889 40.2998C206.549 40.5669 205.159 40.4116 203.911 39.8553C201.993 38.9903 200.845 37.5166 200.79 35.3933C200.727 34.3729 200.96 33.356 201.461 32.4645C201.963 31.5729 202.711 30.8447 203.617 30.3671C205.521 29.2729 207.611 29.2797 209.691 29.5293C211.246 29.7482 212.791 30.0901 214.469 30.4081ZM214.199 33.8273C211.695 33.0443 209.403 32.4835 207.022 32.6955C206.396 32.7551 205.786 32.9253 205.22 33.1982C204.784 33.4087 204.432 33.7589 204.22 34.1929C204.007 34.6268 203.947 35.1193 204.048 35.5916C204.179 36.3643 204.894 36.9593 205.912 37.096C206.322 37.1575 206.739 37.1679 207.152 37.1268C209.783 36.8294 211.859 35.3523 214.185 33.8512L214.199 33.8273Z" fill="#143246"/>
<path d="M193.867 10.5768C193.867 7.64311 193.867 4.70715 193.867 1.76891C193.867 0.702119 194.322 0.0900811 195.134 0.00802013C195.946 -0.0740408 196.587 0.476451 196.758 1.52957C196.802 1.83771 196.825 2.14841 196.827 2.45959C197.001 8.3543 197.08 14.2524 197.364 20.1437C197.649 26.035 198.142 31.9571 198.529 37.8655C198.817 42.2968 199.091 46.7292 199.351 51.1628C199.434 52.6262 198.862 53.4092 197.827 53.4434C196.847 53.4776 196.234 52.7595 196.135 51.3337C195.929 48.3282 195.792 45.3193 195.583 42.3139C195.309 38.2108 194.984 34.1317 194.716 30.0355C194.461 26.1239 194.232 22.2089 194.031 18.2905C193.904 15.7227 193.946 13.1617 193.867 10.5768C193.894 10.5768 193.839 10.5802 193.867 10.5768Z" fill="#143246"/>
<path d="M178.547 22.226C178.571 22.0448 178.78 21.2413 178.841 21.0703C179.091 20.3865 179.526 19.9522 180.301 20.0206C180.633 20.0437 180.943 20.1905 181.172 20.4318C181.4 20.6732 181.53 20.9914 181.534 21.3233C181.567 21.8126 181.531 22.304 181.428 22.7833C180.749 26.4722 180.781 30.2566 181.524 33.9334C181.578 34.2144 181.648 34.4918 181.736 34.7642C182.062 35.749 182.274 36.9765 183.449 37.1782C184.075 37.2798 184.716 37.2012 185.299 36.9517C185.881 36.7022 186.38 36.2921 186.738 35.7695C187.403 34.8433 187.884 33.7988 188.156 32.6922C188.92 29.3961 188.666 26.0897 187.861 22.8175C187.753 22.4442 187.672 22.0637 187.618 21.6789C187.546 21.2511 187.636 20.8117 187.872 20.4472C188.108 20.0827 188.472 19.8196 188.892 19.7095C189.67 19.5351 190.448 19.9625 190.705 20.9335C191.108 22.4369 191.418 23.9636 191.633 25.505C192.054 28.6507 191.945 31.7861 190.968 34.8326C190.098 37.5475 188.475 39.5887 185.652 40.5256C183.076 41.377 181.037 40.6589 179.66 38.3168C178.632 36.5491 178.238 34.5864 178.053 32.5828C177.944 31.3963 177.92 30.1893 177.858 29.0063C177.848 26.329 178.201 24.6981 178.547 22.226Z" fill="#143246"/>
<path d="M161.836 29.916C162.141 32.4736 163.001 35.1406 166.026 36.5288C167.872 37.3733 169.616 37.11 171.048 35.6808C171.798 34.9286 172.459 34.084 173.155 33.2874C173.85 32.4907 174.593 32.3095 175.275 32.7369C175.957 33.1643 176.399 34.2208 175.899 35.0004C174.244 37.5614 172.425 40.0198 169.116 40.5292C165.902 41.025 163.292 39.6779 161.343 37.2913C158.304 33.5917 157.088 27.2422 161.209 22.6741C163.326 20.3252 165.981 19.6789 168.996 20.0243C169.355 20.0653 169.719 20.1132 170.078 20.1645C171.106 20.3115 171.637 20.9372 171.568 21.9048C171.557 22.1199 171.503 22.3306 171.409 22.5245C171.315 22.7184 171.183 22.8915 171.02 23.0336C170.858 23.1757 170.669 23.284 170.464 23.352C170.26 23.4201 170.043 23.4465 169.828 23.4298C169.386 23.4298 168.948 23.3409 168.506 23.3067C164.618 22.9921 161.836 25.5702 161.836 29.916Z" fill="#143246"/>
<path d="M132.741 18.5195C133.964 18.5195 135.862 19.0256 137.404 19.3709C137.979 19.5297 138.515 19.8043 138.98 20.1778C139.296 20.3944 139.52 20.7199 139.61 21.0917C139.7 21.4635 139.649 21.8554 139.466 22.1918C139.107 22.8414 138.343 23.0431 137.479 22.8243C136.189 22.445 134.872 22.1604 133.54 21.9729C132.533 21.8669 131.484 22.096 130.457 22.202C130.015 22.2465 129.895 22.5097 129.926 22.9645C130.193 26.5376 130.45 30.1106 130.665 33.6871C130.758 35.2395 130.761 36.802 130.758 38.3578C130.758 39.3322 130.21 39.9238 129.388 39.9545C128.566 39.9853 127.976 39.4656 127.894 38.4945C127.767 36.9696 127.75 35.4173 127.623 33.9094C127.36 30.7295 127.048 27.5531 126.767 24.3732C126.702 23.6483 126.695 22.9201 126.644 22.1952C126.544 20.9061 127.164 20.0684 128.298 19.5624C129.706 18.9559 131.21 18.6028 132.741 18.5195V18.5195Z" fill="#143246"/>
<path d="M225.507 18.2085C227.22 18.2085 228.59 18.7248 230.087 19.0736C230.662 19.2345 231.196 19.514 231.656 19.8942C231.968 20.1171 232.185 20.4483 232.265 20.8227C232.345 21.1972 232.282 21.588 232.088 21.9183C231.721 22.5304 230.985 22.7253 230.159 22.5201C228.842 22.1398 227.501 21.8508 226.144 21.6551C225.137 21.5491 224.089 21.7918 223.061 21.9047C222.65 21.9491 222.54 22.1987 222.571 22.6193C222.838 26.2436 223.105 29.868 223.321 33.4958C223.414 35.0207 223.41 36.5731 223.4 38.0878C223.4 39.0178 222.855 39.5922 222.081 39.6401C221.252 39.6914 220.639 39.1751 220.557 38.2177C220.426 36.6654 220.409 35.1062 220.279 33.5539C220.012 30.374 219.7 27.1976 219.419 24.0177C219.358 23.2963 219.347 22.568 219.299 21.8397C219.217 20.5848 219.824 19.7642 220.927 19.265C222.375 18.6338 223.928 18.2756 225.507 18.2085V18.2085Z" fill="#143246"/>
<path d="M151.703 25.9424C151.703 25.1389 151.672 24.332 151.703 23.5285C151.747 22.5369 152.333 21.9044 153.141 21.8975C153.95 21.8907 154.512 22.4514 154.594 23.4259C154.892 26.9956 155.166 30.5686 155.447 34.1383C155.526 35.123 155.622 36.1043 155.687 37.0891C155.733 37.5008 155.726 37.9168 155.666 38.3268C155.614 38.6785 155.438 39 155.169 39.2332C154.9 39.4664 154.556 39.5961 154.2 39.5988C153.831 39.6287 153.463 39.5192 153.171 39.2919C152.879 39.0646 152.682 38.7361 152.621 38.3713C152.46 37.3727 152.356 36.3658 152.309 35.3555C152.11 32.2201 151.942 29.0813 151.761 25.9424H151.703Z" fill="#143246"/>
<path d="M153.344 16.4478C153.545 16.4543 153.744 16.501 153.928 16.5849C154.111 16.6689 154.276 16.7886 154.413 16.9369C154.55 17.0852 154.656 17.2592 154.724 17.4488C154.793 17.6384 154.823 17.8398 154.813 18.0411C154.821 18.4224 154.679 18.7916 154.416 19.0682C154.152 19.3449 153.791 19.5066 153.409 19.5182C152.976 19.5231 152.558 19.3602 152.243 19.0636C151.928 18.767 151.74 18.36 151.72 17.9283C151.754 17.5229 151.94 17.1454 152.241 16.871C152.542 16.5966 152.936 16.4455 153.344 16.4478Z" fill="#143246"/>
<path d="M72.9387 36.3906C72.9387 35.3057 72.9387 34.2488 72.9387 33.1083C72.8831 31.5506 72.772 31.4394 71.2443 31.495C68.6056 31.6063 65.9391 31.801 63.3559 32.2182C63.1892 32.2182 62.9392 32.3295 62.7726 32.3295C62.3004 32.2738 61.8837 32.1626 61.6615 31.6063C61.4393 31.1334 61.5504 30.7162 61.8837 30.2989C62.6615 29.4088 63.6614 29.1029 64.7725 29.1029C66.6057 29.1029 68.4112 28.936 70.2444 28.7413C72.6054 28.4909 72.6054 28.4909 72.6054 26.071C72.6054 24.8193 72.2998 23.6232 72.1332 22.3715C72.0776 21.7039 71.911 21.0642 72.0221 20.341C72.1887 19.5065 72.8554 18.9224 73.5498 18.9224C74.2442 18.978 74.6608 19.4509 74.7997 20.4244C74.9664 22.3993 75.1053 24.3464 75.1608 26.2657C75.1608 28.0459 75.2164 28.0459 76.9385 28.0459C78.9384 28.0459 82.1327 28.1015 84.077 28.1015C84.9103 28.1015 85.6047 28.63 85.6047 29.2419C85.6603 29.9095 84.7159 31.0778 83.9104 30.9665C81.7994 30.6049 78.4662 31.1334 76.2996 31.0778C75.5219 31.0778 75.2997 31.3837 75.3552 32.0791C75.4664 34.5269 75.5219 36.6131 75.7163 39.033C75.7719 39.8675 75.4941 40.396 74.8275 40.8132C73.8831 41.3417 72.9387 40.8689 72.8831 39.7284C72.8831 38.7827 72.8831 37.5866 72.9387 36.3906Z" fill="#FF6F61"/>
<path d="M81.5584 38.9326C81.6724 37.9464 82.4702 37.1794 83.3821 37.2342C84.2369 37.289 84.9492 38.056 84.8352 38.8778C84.7213 39.7544 83.7525 40.5762 82.8977 40.5214C82.0998 40.4666 81.5015 39.6996 81.5584 38.9326Z" fill="#FF6F61"/>
<path d="M66.1051 21.3459C66.1051 21.9216 64.9794 22.9908 64.304 23.0457C63.516 23.1005 62.8125 22.3329 62.8125 21.5653C62.8688 20.688 63.713 19.7559 64.3603 19.7559C65.1483 19.8381 66.1051 20.7154 66.1051 21.3459Z" fill="#FF6F61"/>
<path d="M80.7949 20.9631C80.8553 19.6834 81.5492 18.9394 82.7259 18.9989C83.4802 19.0584 84.144 19.8322 84.0837 20.5167C84.0233 21.4691 83.0578 22.5405 82.2432 22.5405C81.3682 22.5702 80.7949 21.9155 80.7949 20.9631Z" fill="#FF6F61"/>
<path d="M65.1431 41.5346C64.2645 41.4764 63.8252 40.9819 63.8252 40.1673C63.8252 39.12 64.8921 38.189 65.959 38.2472C66.6807 38.3054 67.371 38.9454 67.371 39.6727C67.2769 40.6619 66.21 41.5928 65.1431 41.5346Z" fill="#FF6F61"/>
</g>
<defs>
<clipPath id="clip0_2118_3173">
<rect width="232.507" height="58" fill="white"/>
</clipPath>
</defs>
</svg>
