<svg width="918" height="229" viewBox="0 0 918 229" fill="none" xmlns="http://www.w3.org/2000/svg">
<g clip-path="url(#clip0_584_132)">
<path d="M145.375 139.375C144.767 139.713 144.537 139.767 144.429 139.915C138.842 147.07 131.674 150.486 122.557 148.623C112.197 146.503 104.825 140.712 101.633 130.398C97.8457 118.153 99.8881 106.287 104.46 94.6497C105.177 92.8407 105.812 91.0182 106.746 89.2497C109.951 82.8912 114.78 79.4352 122.165 78.1392C137.706 75.4392 150.569 85.1322 153.707 95.0682C154.032 96.1077 156.047 102.507 155.993 104.316C155.357 122.649 158.387 140.685 160.051 158.842C161.011 169.035 162.147 179.281 161.904 189.487C161.742 196.52 159.848 203.635 157.846 210.466C154.329 222.697 136.205 232.768 123.301 228.286C118.409 226.504 113.646 224.388 109.045 221.954C107.328 220.872 105.858 219.442 104.73 217.756C103.829 216.684 103.334 215.329 103.334 213.929C103.334 212.529 103.829 211.174 104.73 210.101C105.655 209.047 106.926 208.358 108.315 208.158C109.704 207.957 111.119 208.259 112.305 209.008C114.104 209.98 115.686 211.343 117.472 212.342C123.748 215.785 130.064 218.309 137.3 214.705C139.687 213.619 141.806 212.024 143.507 210.032C145.208 208.04 146.451 205.7 147.147 203.176C149.316 195.241 149.968 186.97 149.068 178.795C147.945 165.768 146.647 152.74 145.375 139.375ZM112.17 115.966C112.172 120.68 113.23 125.334 115.267 129.588C118.702 136.689 129.05 138.714 133.283 133.206C140.939 123.216 143.482 111.876 139.979 99.6176C138.626 94.8387 134.893 92.0037 130.145 90.7482C125.06 89.3982 118.486 92.0982 116.62 96.3642C113.832 102.533 112.318 109.2 112.17 115.966Z" fill="#E9EDD8"/>
<path d="M54.1031 121.285C51.8849 110.944 49.2203 101.035 43.4042 92.4492C40.131 87.5622 37.4529 87.0492 33.1787 91.0992C30.1814 94.126 27.6964 97.6184 25.8207 101.44C23.8595 105.261 21.763 107.151 18.4356 106.233C15.3517 105.355 13.5258 102.021 14.716 98.2137C17.9352 87.9807 24.1841 80.2722 34.5989 76.7352C40.672 74.6832 45.9335 76.9512 50.3024 81.2712C56.8488 87.7377 60.4197 95.9457 62.8813 104.559C65.0725 112.227 66.5604 120.097 68.2917 127.86C68.4451 128.776 68.6713 129.679 68.9679 130.56C69.4595 131.751 69.6185 133.053 69.428 134.327C69.2375 135.601 68.7045 136.8 67.8859 137.796C67.4476 138.488 66.9301 139.126 66.3439 139.699C55.104 149.608 42.782 157.56 27.7414 160.273C22.5491 161.274 17.1739 160.652 12.349 158.491C4.77459 155.089 0.175821 149.284 -0.01354 140.941C-0.282278 136.848 0.655532 132.766 2.68416 129.199C4.7128 125.631 7.74348 122.735 11.4022 120.867C18.7602 116.722 26.8081 116.722 34.8153 117.64C40.4962 118.302 46.0688 119.8 51.709 120.921C52.3718 121.056 53.0616 121.137 54.1031 121.285ZM52.0878 134.785C43.0931 131.572 34.0985 129.385 24.644 130.195C22.1984 130.411 19.8092 131.051 17.5835 132.085C15.8656 132.918 14.4766 134.301 13.6382 136.014C12.7998 137.727 12.5602 139.671 12.9577 141.535C13.4852 144.586 16.2986 146.935 20.3157 147.462C21.9365 147.704 23.5812 147.745 25.212 147.583C35.5728 146.436 43.7694 140.604 52.0472 134.772L52.0878 134.785Z" fill="#E9EDD8"/>
<path d="M93.7201 201.556C93.7201 203.378 93.8012 204.607 93.7201 205.835C93.6868 207.446 93.038 208.984 91.9066 210.133C90.7752 211.282 89.2466 211.957 87.6335 212.018C86.0661 212.045 84.5471 211.477 83.3824 210.43C82.2178 209.383 81.4942 207.934 81.3575 206.375C80.7624 200.26 80.5189 194.104 80.0996 187.961C78.9364 171.086 77.7732 154.212 76.6099 137.337C75.7037 124.039 74.8651 110.728 73.9048 97.4306C71.8894 68.0547 71.6866 38.6247 72.0518 9.16781C72.0083 7.93975 72.0808 6.71034 72.2682 5.49582C72.4304 4.312 73.0016 3.22182 73.8831 2.41343C74.7647 1.60504 75.9013 1.12913 77.0969 1.06783C78.2854 0.871415 79.5051 1.10479 80.5366 1.72596C81.5681 2.34713 82.3436 3.31532 82.7236 4.45633C83.3266 6.19507 83.6552 8.01682 83.6975 9.85631C84.4143 33.1303 84.766 56.4177 85.821 79.6647C86.7678 100.455 88.5262 121.204 89.8787 141.981C90.9879 158.964 92.0925 175.946 93.1926 192.929C93.3278 196.021 93.5442 199.085 93.7201 201.556Z" fill="#E9EDD8"/>
<path d="M170.006 95.0142C172.711 89.0877 176.525 83.9712 183.531 82.4457C202.467 78.3957 219.753 90.8022 222.12 109.986C223.492 120.415 221.756 131.017 217.129 140.469C209.704 155.832 193.906 157.087 183.085 153.105C175.118 150.256 171.155 143.506 169.072 135.892C164.068 116.425 167.368 100.941 170.006 95.0142ZM182.517 135.514C183.978 137.377 187.562 141.252 190.511 141.67C199.532 143.02 204.226 141.184 207.797 132.801C210.531 126.237 211.523 119.082 210.678 112.024C209.433 100.266 200.344 93.2052 188.563 94.6632C184.6 95.1627 182.787 99.1587 180.813 103.236C178.838 107.313 176.309 126.321 182.517 135.568V135.514Z" fill="#E9EDD8"/>
<path d="M376.777 140.782C377.376 140.629 377.96 140.421 378.521 140.161C387.854 134.019 397.228 127.903 406.479 121.639C408.285 120.281 409.893 118.677 411.254 116.874C417.219 109.692 417.165 101.133 410.307 94.7475C399.135 84.339 385.961 78.0885 370.325 78.2775C369.5 78.2775 368.675 78.399 367.863 78.372C366.516 78.4297 365.195 77.9933 364.148 77.1452C363.102 76.2971 362.402 75.096 362.182 73.7685C361.903 72.4362 362.157 71.0476 362.89 69.8997C363.623 68.7518 364.777 67.9357 366.105 67.6261C369.198 66.8547 372.388 66.5408 375.573 66.6946C390.687 67.6123 405.1 73.3797 416.664 83.1375C431.245 95.112 432.219 113.634 419.153 127.188C415.693 130.844 411.816 134.083 407.602 136.84C397.917 143.01 387.908 148.68 378.102 154.66C377.66 154.979 377.286 155.381 377 155.845C376.715 156.308 376.524 156.823 376.438 157.36C374.896 174.411 373.503 191.461 371.948 208.512C371.607 211.978 370.978 215.41 370.068 218.772C369.935 219.538 369.647 220.268 369.222 220.92C368.797 221.572 368.244 222.13 367.597 222.562C366.949 222.994 366.22 223.29 365.455 223.432C364.689 223.574 363.902 223.559 363.143 223.389C360.113 222.741 358.476 219.946 359.004 216.193C363.1 185.06 364.66 153.646 363.67 122.26C363.481 114.066 363.21 105.871 362.953 97.6635C362.845 96.2709 363.25 94.8868 364.092 93.7709C364.934 92.6549 366.154 91.8838 367.525 91.602C369.155 91.2464 370.859 91.5046 372.309 92.327C373.76 93.1493 374.855 94.4778 375.383 96.057C375.914 98.0386 376.182 100.081 376.181 102.132C376.371 113.823 376.479 125.527 376.614 137.232C376.587 138.366 376.695 139.459 376.777 140.782Z" fill="#E9EDD8"/>
<path d="M553.396 42.381C544.388 42.975 535.38 43.731 526.345 44.3115C525.33 44.3115 524.302 44.433 523.274 44.433C519.081 44.433 516.417 42.2865 516.146 38.763C515.876 35.2395 518.107 32.5395 522.192 32.013C525.749 31.5135 529.807 31.338 533.391 31.122C542.508 30.5685 551.381 30.96 560.227 29.1105C567.95 27.5041 578.797 29.3535 586.277 28.5435C593.757 27.7336 597.909 27.7201 605.47 27.0046C608.825 26.6941 612.139 25.8841 615.493 25.4116C619.213 24.8986 622.256 26.7616 622.797 29.9745C623.338 33.1875 621.525 35.5905 617.833 36.549C617.245 36.7346 616.644 36.8745 616.034 36.9675C603.712 38.439 591.404 40.0185 579.054 41.274C573.752 41.8005 573.549 41.5035 573.793 46.7685C574.875 69.6105 576.173 92.4389 577.174 115.281C577.837 130.549 578.216 145.818 578.608 161.1C578.716 165.568 576.201 168.43 572.535 168.565C568.87 168.7 566.218 165.987 566.029 161.464C565.596 151.42 565.515 141.363 565.096 131.332C564.19 109.206 563.135 87.0794 562.242 64.953C561.971 58.2975 562.08 51.6285 561.998 44.9595C561.647 40.788 558.59 42.03 553.396 42.381Z" fill="#E9EDD8"/>
<path d="M480.952 120.681C478.842 110.88 476.245 101.416 470.916 92.9654C467.142 86.9849 464.221 86.4044 459.243 91.3589C456.531 94.2487 454.306 97.5588 452.656 101.16C450.776 104.967 448.504 106.816 445.203 105.804C444.443 105.544 443.743 105.133 443.145 104.596C442.548 104.06 442.065 103.408 441.725 102.681C441.385 101.954 441.196 101.166 441.169 100.364C441.141 99.5622 441.276 98.7631 441.565 98.0144C444.784 87.5384 451.141 79.6815 461.854 76.2525C467.71 74.376 472.782 76.6305 477.002 80.748C483.603 87.1739 487.187 95.3819 489.676 103.995C491.881 111.649 493.369 119.52 495.168 127.296C495.347 128.297 495.595 129.285 495.911 130.252C496.37 131.402 496.518 132.653 496.34 133.878C496.162 135.103 495.664 136.259 494.897 137.232C494.403 138.006 493.822 138.722 493.166 139.365C481.98 149.166 469.766 157.09 454.834 159.817C449.545 160.861 444.062 160.239 439.144 158.035C431.583 154.593 427.079 148.747 426.889 140.35C426.661 136.318 427.604 132.305 429.605 128.794C431.606 125.284 434.58 122.424 438.17 120.559C445.704 116.266 453.941 116.307 462.151 117.292C468.332 118.035 474.432 119.479 480.952 120.681ZM479.451 134.518C478.852 134.111 478.207 133.776 477.53 133.519C469.901 132.169 462.3 130.428 454.604 129.631C451.33 129.294 447.678 130.455 444.54 131.751C440.78 133.29 439.225 137.272 439.928 141.201C440.469 144.238 443.31 146.601 447.327 147.114C448.949 147.345 450.593 147.382 452.223 147.222C462.53 146.034 470.767 140.175 479.451 134.518Z" fill="#E9EDD8"/>
<path d="M846.784 120.06C844.66 110.205 842.077 100.66 836.626 92.1689C832.907 86.3639 830.08 85.8104 825.156 90.6974C822.423 93.5689 820.183 96.8714 818.529 100.471C816.635 104.305 814.471 106.168 811.117 105.21C808.046 104.332 806.234 100.984 807.451 97.1099C810.684 86.9039 816.919 79.182 827.361 75.672C833.434 73.6335 838.682 75.915 843.051 80.235C849.53 86.6339 853.073 94.7474 855.535 103.185C857.767 110.934 859.255 118.899 861.081 126.783C861.24 127.699 861.471 128.602 861.771 129.483C862.245 130.625 862.408 131.872 862.244 133.098C862.08 134.323 861.595 135.484 860.837 136.462C860.343 137.249 859.758 137.974 859.092 138.622C847.947 148.437 835.706 156.348 820.801 159.115C815.511 160.17 810.023 159.557 805.098 157.36C797.523 153.945 792.992 148.126 792.776 139.743C792.526 135.714 793.445 131.699 795.425 128.179C797.404 124.659 800.359 121.784 803.934 119.898C811.455 115.578 819.705 115.605 827.916 116.59C834.056 117.454 840.156 118.804 846.784 120.06ZM845.716 133.56C835.828 130.468 826.779 128.254 817.379 129.091C814.908 129.326 812.499 129.998 810.264 131.076C808.545 131.907 807.154 133.29 806.316 135.003C805.477 136.717 805.239 138.661 805.639 140.526C806.153 143.577 808.979 145.926 812.997 146.466C814.617 146.709 816.262 146.749 817.893 146.587C828.281 145.413 836.477 139.581 845.661 133.654L845.716 133.56Z" fill="#E9EDD8"/>
<path d="M765.44 41.7601C765.44 30.1771 765.44 18.5851 765.44 6.98415C765.44 2.77216 767.239 0.355665 770.444 0.0316657C773.65 -0.292334 776.179 1.88116 776.856 6.03915C777.027 7.2558 777.118 8.48251 777.126 9.71115C777.816 32.9851 778.127 56.2725 779.25 79.533C780.372 102.793 782.32 126.175 783.848 149.503C784.985 166.999 786.067 184.5 787.095 202.005C787.419 207.783 785.161 210.874 781.076 211.009C777.207 211.144 774.786 208.309 774.394 202.68C773.582 190.813 773.041 178.933 772.216 167.067C771.134 150.867 769.849 134.761 768.794 118.588C767.784 103.144 766.883 87.687 766.089 72.216C765.589 62.0775 765.751 51.9661 765.44 41.7601C765.548 41.7601 765.332 41.7736 765.44 41.7601Z" fill="#E9EDD8"/>
<path d="M704.952 87.7545C705.047 87.039 705.872 83.8665 706.116 83.1915C707.103 80.4915 708.821 78.777 711.878 79.047C713.188 79.1384 714.416 79.7179 715.318 80.6707C716.22 81.6235 716.73 82.8798 716.747 84.1905C716.877 86.1221 716.736 88.0624 716.328 89.955C713.646 104.52 713.775 119.462 716.706 133.978C716.919 135.088 717.199 136.183 717.545 137.259C718.83 141.147 719.669 145.993 724.308 146.79C726.778 147.191 729.312 146.881 731.611 145.896C733.911 144.911 735.882 143.291 737.293 141.228C739.918 137.571 741.818 133.447 742.892 129.078C745.909 116.064 744.908 103.009 741.729 90.09C741.303 88.616 740.982 87.1138 740.769 85.5945C740.483 83.9054 740.841 82.1705 741.772 80.7315C742.703 79.2924 744.14 78.2532 745.8 77.8185C748.871 77.1301 751.941 78.8175 752.955 82.6515C754.548 88.5871 755.772 94.615 756.621 100.701C758.285 113.121 757.852 125.5 753.997 137.529C750.561 148.248 744.15 156.307 733.005 160.006C722.834 163.368 714.786 160.533 709.348 151.285C705.291 144.306 703.735 136.557 703.005 128.646C702.572 123.961 702.477 119.196 702.234 114.525C702.193 103.954 703.586 97.515 704.952 87.7545Z" fill="#E9EDD8"/>
<path d="M638.974 118.116C640.178 128.214 643.573 138.744 655.516 144.225C662.806 147.559 669.691 146.52 675.345 140.877C678.307 137.907 680.917 134.572 683.663 131.427C686.409 128.281 689.344 127.566 692.036 129.253C694.727 130.941 696.472 135.112 694.497 138.19C687.964 148.302 680.782 158.008 667.716 160.02C655.029 161.977 644.722 156.658 637.026 147.235C625.029 132.628 620.227 107.559 636.499 89.5229C644.858 80.2485 655.34 77.697 667.243 79.0605C668.663 79.2225 670.097 79.4115 671.517 79.614C675.575 80.1945 677.671 82.6649 677.401 86.4854C677.356 87.3348 677.142 88.1667 676.77 88.9321C676.399 89.6975 675.878 90.3809 675.237 90.9421C674.597 91.5032 673.85 91.9307 673.042 92.1994C672.233 92.4681 671.379 92.5724 670.53 92.5064C668.785 92.5064 667.053 92.1554 665.309 92.0204C649.957 90.7784 638.974 100.957 638.974 118.116Z" fill="#E9EDD8"/>
<path d="M524.099 73.1205C528.928 73.1205 536.421 75.1185 542.508 76.482C544.778 77.1087 546.895 78.193 548.73 79.668C549.977 80.5228 550.863 81.808 551.218 83.2761C551.572 84.7441 551.37 86.2913 550.65 87.6195C549.23 90.1845 546.214 90.9809 542.805 90.1169C537.71 88.6192 532.511 87.4957 527.251 86.7555C523.274 86.337 519.135 87.2415 515.078 87.66C513.333 87.8355 512.859 88.875 512.981 90.6705C514.036 104.778 515.05 118.885 515.903 133.006C516.268 139.135 516.281 145.305 516.268 151.447C516.268 155.295 514.104 157.63 510.857 157.752C507.611 157.873 505.285 155.821 504.96 151.987C504.46 145.966 504.392 139.837 503.892 133.884C502.85 121.329 501.619 108.787 500.51 96.2324C500.253 93.3704 500.226 90.495 500.023 87.633C499.631 82.5435 502.079 79.236 506.556 77.238C512.115 74.8434 518.054 73.4494 524.099 73.1205Z" fill="#E9EDD8"/>
<path d="M890.364 71.892C897.127 71.892 902.537 73.9305 908.448 75.3075C910.717 75.9429 912.828 77.0467 914.643 78.5475C915.874 79.4276 916.732 80.7352 917.047 82.2137C917.362 83.6923 917.113 85.2351 916.347 86.5394C914.9 88.9559 911.992 89.7254 908.732 88.9154C903.533 87.4138 898.237 86.2726 892.88 85.4999C888.903 85.0814 884.764 86.0399 880.707 86.4854C879.084 86.6609 878.651 87.6464 878.773 89.3069C879.828 103.617 880.883 117.927 881.735 132.25C882.1 138.271 882.086 144.4 882.046 150.381C882.046 154.053 879.895 156.321 876.838 156.51C873.565 156.712 871.144 154.674 870.819 150.894C870.305 144.765 870.238 138.609 869.724 132.48C868.669 119.925 867.438 107.383 866.329 94.8284C866.085 91.9799 866.045 89.1044 865.855 86.2289C865.531 81.2744 867.925 78.0345 872.28 76.0635C877.999 73.5711 884.13 72.1567 890.364 71.892Z" fill="#E9EDD8"/>
<path d="M598.964 102.429C598.964 99.2564 598.843 96.0703 598.964 92.8979C599.14 88.9829 601.453 86.4854 604.645 86.4584C607.837 86.4314 610.055 88.6454 610.38 92.4929C611.557 106.587 612.639 120.694 613.748 134.788C614.059 138.676 614.438 142.551 614.695 146.439C614.878 148.064 614.851 149.707 614.614 151.326C614.407 152.714 613.71 153.984 612.649 154.904C611.587 155.825 610.231 156.337 608.825 156.348C607.366 156.466 605.916 156.034 604.761 155.136C603.607 154.239 602.832 152.942 602.589 151.501C601.955 147.558 601.544 143.583 601.358 139.594C600.574 127.215 599.911 114.822 599.194 102.429H598.964Z" fill="#E9EDD8"/>
<path d="M605.443 64.9396C606.241 64.9654 607.025 65.1495 607.75 65.4811C608.475 65.8127 609.126 66.285 609.666 66.8707C610.207 67.4563 610.624 68.1434 610.896 68.892C611.167 69.6406 611.286 70.4355 611.246 71.2305C611.279 72.736 610.714 74.1935 609.676 75.2858C608.637 76.378 607.208 77.0166 605.7 77.0625C603.991 77.0819 602.34 76.4384 601.097 75.2675C599.853 74.0966 599.113 72.4897 599.032 70.7851C599.168 69.1845 599.904 67.6938 601.092 66.6104C602.28 65.527 603.834 64.9304 605.443 64.9396Z" fill="#E9EDD8"/>
<path d="M287.982 143.679C287.982 139.396 287.982 135.223 287.982 130.72C287.763 124.57 287.324 124.131 281.292 124.35C270.874 124.79 260.345 125.558 250.146 127.206C249.488 127.206 248.501 127.645 247.843 127.645C245.979 127.425 244.334 126.986 243.456 124.79C242.579 122.923 243.018 121.275 244.334 119.628C247.405 116.114 251.353 114.906 255.739 114.906C262.977 114.906 270.106 114.247 277.344 113.478C286.666 112.489 286.666 112.489 286.666 102.935C286.666 97.9927 285.46 93.2703 284.802 88.3282C284.582 85.6924 283.924 83.1665 284.363 80.3111C285.021 77.0164 287.653 74.7101 290.395 74.7101C293.136 74.9297 294.781 76.7967 295.33 80.6406C295.988 88.438 296.536 96.1257 296.755 103.704C296.755 110.732 296.975 110.732 303.774 110.732C311.67 110.732 324.282 110.952 331.959 110.952C335.249 110.952 337.991 113.039 337.991 115.455C338.21 118.09 334.481 122.703 331.301 122.264C322.966 120.836 309.806 122.923 301.252 122.703C298.181 122.703 297.304 123.911 297.523 126.657C297.962 136.321 298.181 144.558 298.949 154.113C299.168 157.407 298.071 159.494 295.439 161.141C291.711 163.228 287.982 161.361 287.763 156.858C287.763 153.124 287.763 148.402 287.982 143.679Z" fill="#FF6F61"/>
<path d="M322.015 153.717C322.465 149.823 325.615 146.795 329.215 147.011C332.59 147.227 335.403 150.256 334.953 153.5C334.503 156.961 330.677 160.206 327.302 159.99C324.152 159.773 321.79 156.745 322.015 153.717Z" fill="#FF6F61"/>
<path d="M261 84.278C261 86.5511 256.556 90.7726 253.889 90.9891C250.778 91.2055 248 88.1748 248 85.144C248.222 81.6802 251.556 78 254.111 78C257.222 78.3247 261 81.7885 261 84.278Z" fill="#FF6F61"/>
<path d="M319 82.7684C319.238 77.7157 321.978 74.7781 326.624 75.0131C329.602 75.2481 332.223 78.3032 331.985 81.0058C331.747 84.766 327.935 88.9962 324.718 88.9962C321.263 89.1137 319 86.5286 319 82.7684Z" fill="#FF6F61"/>
<path d="M257.204 163.99C253.734 163.76 252 161.807 252 158.591C252 154.456 256.212 150.78 260.425 151.01C263.274 151.24 266 153.767 266 156.639C265.628 160.544 261.416 164.219 257.204 163.99Z" fill="#FF6F61"/>
</g>
<defs>
<clipPath id="clip0_584_132">
<rect width="918" height="229" fill="white"/>
</clipPath>
</defs>
</svg>
