<svg width="200" height="200" viewBox="0 0 200 200" fill="none" xmlns="http://www.w3.org/2000/svg">
<path d="M98.8867 110.682C98.8867 108.792 98.8867 106.951 98.8867 104.964C98.7898 102.25 98.5958 102.056 95.9291 102.153C91.3231 102.347 86.6685 102.686 82.1594 103.413C81.8685 103.413 81.4321 103.607 81.1412 103.607C80.317 103.51 79.5897 103.316 79.2018 102.347C78.8139 101.523 79.0079 100.796 79.5897 100.069C80.9473 98.5183 82.6927 97.9852 84.6321 97.9852C87.8321 97.9852 90.9837 97.6944 94.1837 97.3552C98.3049 96.919 98.3049 96.919 98.3049 92.7027C98.3049 90.5219 97.7716 88.438 97.4807 86.2572C97.3837 85.0941 97.0928 83.9794 97.2867 82.7194C97.5776 81.2655 98.7413 80.2478 99.9534 80.2478C101.166 80.3447 101.893 81.1686 102.135 82.8648C102.426 86.3057 102.669 89.698 102.766 93.042C102.766 96.1436 102.863 96.1436 105.869 96.1436C109.359 96.1436 114.935 96.2405 118.329 96.2405C119.784 96.2405 120.996 97.1613 120.996 98.2275C121.093 99.3906 119.444 101.426 118.038 101.232C114.353 100.602 108.535 101.523 104.753 101.426C103.396 101.426 103.008 101.959 103.105 103.171C103.299 107.435 103.396 111.07 103.735 115.286C103.832 116.74 103.347 117.661 102.184 118.388C100.535 119.309 98.8867 118.485 98.7898 116.498C98.7898 114.85 98.7898 112.766 98.8867 110.682Z" fill="#E9EDD8"/>
<path d="M113.917 115.238C114.111 113.493 115.469 112.136 117.02 112.233C118.475 112.33 119.687 113.687 119.493 115.141C119.299 116.692 117.65 118.146 116.196 118.049C114.838 117.952 113.82 116.595 113.917 115.238Z" fill="#E9EDD8"/>
<path d="M87.0564 84.6578C87.0564 85.6755 85.117 87.5655 83.9534 87.6625C82.5958 87.7594 81.3837 86.4024 81.3837 85.0455C81.4806 83.4947 82.9352 81.8469 84.0503 81.8469C85.4079 81.9923 87.0564 83.5431 87.0564 84.6578Z" fill="#E9EDD8"/>
<path d="M113.238 83.2039C113.335 81.1201 114.45 79.9085 116.341 80.0054C117.553 80.1023 118.62 81.3624 118.523 82.477C118.426 84.0278 116.875 85.7725 115.566 85.7725C114.16 85.8209 113.238 84.7548 113.238 83.2039Z" fill="#E9EDD8"/>
<path d="M85.2139 119.842C83.8564 119.745 83.1776 118.921 83.1776 117.564C83.1776 115.82 84.8261 114.269 86.4746 114.366C87.5897 114.463 88.6564 115.529 88.6564 116.74C88.5109 118.388 86.8624 119.939 85.2139 119.842Z" fill="#E9EDD8"/>
</svg>
