<svg width="640" height="366" viewBox="0 0 640 366" fill="none" xmlns="http://www.w3.org/2000/svg">
<g id="samasama">
<g id="orbita">
<path id="orbita (Stroke)" fill-rule="evenodd" clip-rule="evenodd" d="M316.256 110.014C316.291 109.985 316.331 109.952 316.377 109.915C316.582 109.749 316.894 109.497 317.309 109.164C318.138 108.499 319.379 107.513 320.998 106.252C324.235 103.73 328.98 100.111 334.962 95.7594C346.935 87.0501 363.817 75.4436 383.448 63.8494C423.119 40.4198 472.45 18 514.871 18C557.769 18 583.655 31.8744 598.929 49.1491C614.426 66.6762 619.971 88.804 619.971 106.7C619.971 123.425 613.316 149.353 594.137 167.017C575.562 184.124 543.321 195.188 488.303 179.063C483.533 177.665 478.533 180.399 477.135 185.169C475.737 189.939 478.47 194.939 483.24 196.337C542.522 213.712 581.88 202.776 606.331 180.258C630.176 158.297 637.971 126.975 637.971 106.7C637.971 85.496 631.466 58.7738 612.414 37.2259C593.138 15.4255 561.973 0 514.871 0C467.292 0 414.373 24.6801 374.294 48.3506C354.051 60.3064 336.682 72.2499 324.374 81.2031C318.215 85.683 313.312 89.4227 309.936 92.0523C308.248 93.3673 306.941 94.4053 306.05 95.1201C305.604 95.4775 305.262 95.7542 305.027 95.9444L304.93 96.0238C304.859 96.0814 304.802 96.1283 304.758 96.1641L304.664 96.2412L304.657 96.2466C304.655 96.2484 304.653 96.2498 310.371 103.2L304.653 96.2498L304.466 96.4041L304.288 96.5672L304.287 96.5684L304.227 96.6229C304.181 96.6653 304.108 96.7314 304.009 96.8207C303.812 96.9993 303.512 97.2702 303.113 97.6273C302.314 98.3416 301.119 99.4004 299.56 100.755C296.442 103.463 291.873 107.351 286.114 112.024C274.587 121.378 258.34 133.84 239.456 146.285C201.213 171.49 153.957 195.4 113.571 195.4C74.5173 195.4 51.7152 186.689 38.5253 173.489C25.365 160.318 19.9713 140.877 19.9713 115.1C19.9713 81.2417 39.2078 50.5591 70.431 35.6184C101.469 20.7664 145.613 20.9845 195.847 51.9606C200.078 54.5695 205.623 53.2547 208.232 49.0238C210.841 44.793 209.526 39.2482 205.295 36.6394C150.929 3.11547 100.274 1.38357 62.6615 19.3816C25.2347 37.2909 1.97125 74.2583 1.97125 115.1C1.97125 142.923 7.72752 168.132 25.7922 186.211C43.8273 204.261 72.3252 213.4 113.571 213.4C159.686 213.4 210.829 186.71 249.361 161.315C268.865 148.46 285.6 135.622 297.456 126.001C303.389 121.187 308.113 117.168 311.366 114.342C312.992 112.929 314.251 111.814 315.11 111.046C315.54 110.662 315.87 110.364 316.095 110.16C316.156 110.104 316.21 110.056 316.256 110.014Z" fill="#EFF0EB"/>
<path id="atom (Stroke)" fill-rule="evenodd" clip-rule="evenodd" d="M421.259 114.579C429.837 119.942 437.258 125.783 441.06 133.278C445.33 141.696 444.224 150.332 440.056 158.854L440.039 158.89L440.021 158.925C432.156 174.654 418.446 182.15 403.452 186.791C390.067 190.998 375.351 189.141 364.083 178.139L364.077 178.133C357.213 171.416 355.317 163.441 355.643 156.149C355.939 149.509 358.105 143.084 359.628 138.564C359.665 138.455 359.702 138.346 359.738 138.239C362.263 130.68 368.611 124.438 374.257 120.217C380.006 115.919 386.896 112.335 392.536 111.11C398.337 109.813 404.231 109.986 408.988 110.682C413.431 111.333 418.171 112.633 421.259 114.579ZM406.38 128.493C403.122 128.016 399.531 127.987 396.445 128.681L396.405 128.69L396.365 128.699C394.113 129.183 389.573 131.241 385.035 134.633C380.385 138.109 377.588 141.612 376.809 143.946L376.805 143.96L376.8 143.973C375.128 148.939 373.796 153.108 373.625 156.951C373.475 160.307 374.229 162.881 376.662 165.264C382.389 170.853 389.861 172.199 398.069 169.615L398.09 169.609L398.111 169.602C410.894 165.648 419.169 160.351 423.904 150.911C426.417 145.757 425.96 143.3 425.007 141.422C423.587 138.622 419.916 134.966 411.701 129.832L411.678 129.818L411.656 129.803C411.667 129.811 411.646 129.802 411.591 129.78C411.233 129.64 409.472 128.945 406.38 128.493Z" fill="#F16142"/>
</g>
<g id="SamaSama">
<g id="Sama">
<path id="s" d="M51.4176 318.282C37.6243 318.282 29.3283 322.38 18.5335 323.28C11.8367 323.88 6.43936 324.079 2.44129 317.882C-1.65673 311.386 0.942014 304.589 3.94056 299.491C7.43887 293.394 15.1352 286.897 24.2308 285.798C31.8271 284.898 36.6248 283.999 44.321 283.399C48.619 283.399 50.9179 283.999 52.617 284.698C55.0159 285.698 55.9154 287.797 55.6156 290.296C55.3157 292.994 53.5166 294.194 50.9179 294.394C46.3201 294.694 41.6223 294.694 37.0246 295.093C29.3283 295.793 19.3331 297.392 15.6349 300.991C10.5374 305.888 10.1376 314.584 18.8334 312.685C22.2317 311.885 26.0299 311.286 29.2283 310.186C40.223 306.188 54.6161 304.589 62.4123 307.487C70.3085 310.386 75.7059 314.484 77.505 324.079C82.2027 353.965 60.7131 365.26 40.6228 365.26C21.4321 365.26 16.0347 363.56 6.03955 358.163C3.64071 356.864 0.442256 353.565 0.142401 351.466C-0.157454 349.367 -0.257406 345.069 2.74114 342.571C4.84013 340.771 9.93767 343.17 11.7368 344.869C24.9304 354.565 34.4258 355.664 48.1192 352.566C58.5142 350.267 65.111 345.669 66.5103 331.676C67.8097 317.483 53.7165 318.382 51.4176 318.282Z" fill="#EFF0EB"/>
<path id="a" d="M116.086 316.683C129.38 316.783 130.379 315.084 126.082 303.989C122.283 294.094 110.089 285.898 97.9951 294.594C97.3954 294.994 96.6957 295.393 95.9961 295.793C93.1974 297.592 90.4987 300.891 87.0004 297.092C84.4017 294.294 85.1013 288.497 89.1994 285.998C95.0965 282.4 101.393 279.201 108.49 278.901C119.685 278.501 131.679 286.897 135.177 297.592C137.076 303.389 138.975 309.387 138.675 315.584C138.476 319.981 139.475 323.88 140.974 327.978C144.473 337.973 141.374 345.469 132.578 350.966C125.082 355.664 117.686 360.062 108.29 360.562C96.4958 361.261 86.0009 356.464 83.702 348.068C81.4031 339.772 88.4997 325.279 97.0955 320.881C103.492 317.583 109.989 315.783 116.086 316.683ZM116.386 328.577C111.988 327.778 108.19 329.077 104.592 330.077C99.2945 331.576 94.097 340.472 95.5963 344.37C97.1955 348.268 103.592 350.367 109.689 348.867C114.987 347.668 119.785 345.169 124.182 342.171C126.781 340.372 131.479 339.572 130.379 335.074C129.28 331.076 125.682 329.277 121.484 328.977C119.685 328.877 117.786 328.677 116.386 328.577Z" fill="#EFF0EB"/>
<path id="m" d="M231.73 304.389C231.331 316.683 226.733 336.274 224.834 342.371C222.535 349.467 223.434 354.465 221.136 356.864C219.137 359.063 216.738 360.062 213.839 359.063C210.841 358.063 209.841 355.564 210.041 352.666C210.141 349.567 211.04 346.669 212.04 343.77C216.238 331.076 219.336 318.082 219.736 304.589C219.936 299.491 219.037 294.594 218.137 289.696C217.637 286.598 216.438 283.699 212.84 282.899C209.241 282.1 207.242 283.999 205.143 286.698C202.445 290.196 200.446 293.694 200.645 298.192C200.745 301.59 200.745 308.587 200.246 314.584C199.146 326.578 198.147 335.174 195.948 348.368C195.348 351.866 193.649 355.364 189.151 354.665C184.953 353.965 183.754 350.467 184.153 346.768C185.153 336.074 188.251 325.579 187.452 314.784C187.252 311.386 187.552 307.787 186.752 304.489C184.353 294.294 174.158 289.096 164.463 292.994C160.865 294.494 160.965 297.392 161.264 300.691C162.664 312.085 164.363 319.382 166.662 330.776C167.961 336.773 167.561 347.168 166.762 353.365C166.162 357.763 163.663 360.562 159.066 360.062C154.468 359.562 153.768 355.864 154.268 352.266C156.667 337.373 152.069 323.28 149.27 309.087C148.471 304.889 147.771 300.791 147.971 296.493C148.471 285.798 152.569 281 163.463 280.501C171.46 280.101 179.756 279.301 187.152 283.699C191.55 286.298 193.149 284.299 194.748 280.501C198.147 272.504 204.044 268.406 212.94 269.606C222.635 270.905 226.833 272.404 229.731 284.099C232.83 295.493 231.73 299.291 231.73 304.389Z" fill="#EFF0EB"/>
<path id="a_2" d="M271.711 316.683C285.005 316.783 286.004 315.084 281.706 303.989C277.908 294.094 265.714 285.898 253.62 294.594C253.02 294.994 252.321 295.393 251.621 295.793C248.822 297.592 246.124 300.891 242.625 297.092C240.026 294.294 240.726 288.497 244.824 285.998C250.721 282.4 257.018 279.201 264.115 278.901C275.309 278.501 287.304 286.897 290.802 297.592C292.701 303.389 294.6 309.387 294.3 315.584C294.1 319.981 295.1 323.88 296.599 327.978C300.097 337.973 296.999 345.469 288.203 350.966C280.707 355.664 273.31 360.062 263.915 360.562C252.121 361.261 241.626 356.464 239.327 348.068C237.028 339.772 244.124 325.279 252.72 320.881C259.017 317.583 265.614 315.783 271.711 316.683ZM271.911 328.577C267.513 327.778 263.715 329.077 260.117 330.077C254.819 331.576 249.622 340.472 251.121 344.37C252.72 348.268 259.117 350.367 265.214 348.867C270.512 347.668 275.309 345.169 279.707 342.171C282.306 340.372 287.004 339.572 285.904 335.074C284.805 331.076 281.207 329.277 277.009 328.977C275.209 328.877 273.31 328.677 271.911 328.577Z" fill="#EFF0EB"/>
</g>
<g id="Sama_2">
<path id="s_2" d="M393.452 318.282C379.659 318.282 371.363 322.38 360.568 323.28C353.871 323.88 348.474 324.079 344.476 317.882C340.378 311.386 342.977 304.589 345.975 299.491C349.474 293.394 357.17 286.897 366.265 285.798C373.862 284.898 378.659 283.999 386.356 283.399C390.654 283.399 392.953 283.999 394.652 284.698C397.051 285.698 397.95 287.797 397.65 290.296C397.35 292.994 395.551 294.194 392.953 294.394C388.355 294.694 383.657 294.694 379.059 295.093C371.363 295.793 361.368 297.392 357.67 300.991C352.572 305.888 352.172 314.584 360.868 312.685C364.266 311.885 368.065 311.286 371.263 310.186C382.258 306.188 396.651 304.589 404.447 307.487C412.343 310.386 417.741 314.484 419.54 324.079C424.237 353.965 402.748 365.26 382.658 365.26C363.467 365.26 358.069 363.56 348.074 358.163C345.675 356.864 342.477 353.565 342.177 351.466C341.877 349.267 341.777 345.069 344.776 342.571C346.875 340.771 351.972 343.17 353.772 344.869C366.965 354.565 376.461 355.664 390.154 352.566C400.549 350.267 407.146 345.669 408.545 331.676C409.844 317.483 395.751 318.382 393.452 318.282Z" fill="#EFF0EB"/>
<path id="a_3" d="M458.121 316.683C471.415 316.783 472.414 315.084 468.116 303.989C464.318 294.094 452.124 285.898 440.03 294.594C439.43 294.994 438.73 295.393 438.031 295.793C435.232 297.592 432.533 300.891 429.035 297.092C426.436 294.294 427.136 288.497 431.234 285.998C437.131 282.4 443.428 279.201 450.525 278.901C461.719 278.501 473.714 286.897 477.212 297.592C479.111 303.389 481.01 309.387 480.71 315.584C480.51 319.981 481.51 323.88 483.009 327.978C486.507 337.973 483.409 345.469 474.613 350.966C467.117 355.664 459.72 360.062 450.325 360.562C438.531 361.261 428.036 356.464 425.737 348.068C423.438 339.772 430.534 325.279 439.13 320.881C445.427 317.583 452.024 315.783 458.121 316.683ZM458.321 328.577C453.923 327.778 450.125 329.077 446.527 330.077C441.229 331.576 436.032 340.472 437.531 344.37C439.13 348.268 445.527 350.367 451.624 348.867C456.922 347.668 461.719 345.169 466.117 342.171C468.716 340.372 473.414 339.572 472.314 335.074C471.215 331.076 467.617 329.277 463.419 328.977C461.619 328.877 459.72 328.677 458.321 328.577Z" fill="#EFF0EB"/>
<path id="m_2" d="M573.765 304.389C573.365 316.683 568.768 336.274 566.869 342.371C564.57 349.467 565.469 354.465 563.17 356.864C561.171 359.063 558.772 360.062 555.874 359.063C552.875 358.063 551.876 355.564 552.076 352.666C552.176 349.567 553.075 346.669 554.075 343.77C558.273 331.076 561.371 318.082 561.771 304.589C561.971 299.491 561.071 294.594 560.172 289.696C559.672 286.598 558.473 283.699 554.874 282.899C551.276 282.1 549.277 283.999 547.178 286.698C544.479 290.196 542.48 293.694 542.68 298.192C542.78 301.59 542.78 308.587 542.28 314.584C541.181 326.578 540.181 335.174 537.982 348.368C537.383 351.866 535.684 355.364 531.186 354.665C526.988 353.965 525.788 350.467 526.188 346.768C527.188 336.074 530.286 325.579 529.487 314.784C529.287 311.386 529.586 307.787 528.787 304.489C526.388 294.294 516.193 289.096 506.498 292.994C502.899 294.494 502.999 297.392 503.299 300.691C504.699 312.085 506.398 319.382 508.697 330.776C509.996 336.773 509.596 347.168 508.797 353.365C508.197 357.763 505.698 360.562 501.1 360.062C496.502 359.562 495.803 355.864 496.303 352.266C498.701 337.373 494.104 323.28 491.305 309.087C490.505 304.889 489.806 300.791 490.006 296.493C490.505 285.798 494.603 281 505.498 280.501C513.494 280.101 521.79 279.301 529.187 283.699C533.585 286.298 535.184 284.299 536.783 280.501C540.181 272.504 546.079 268.406 554.974 269.606C564.67 270.905 568.868 272.404 571.766 284.099C574.865 295.493 573.765 299.291 573.765 304.389Z" fill="#EFF0EB"/>
<path id="a_4" d="M613.646 316.683C626.939 316.783 627.939 315.084 623.641 303.989C619.843 294.094 607.649 285.898 595.555 294.594C594.955 294.994 594.255 295.393 593.556 295.793C590.757 297.592 588.058 300.891 584.56 297.092C581.961 294.294 582.661 288.497 586.759 285.998C592.656 282.4 598.953 279.201 606.05 278.901C617.244 278.501 629.238 286.897 632.737 297.592C634.636 303.389 636.535 309.387 636.235 315.584C636.035 319.981 637.035 323.88 638.534 327.978C642.032 337.973 638.934 345.469 630.138 350.966C622.642 355.664 615.245 360.062 605.85 360.562C594.055 361.261 583.56 356.464 581.262 348.068C578.963 339.772 586.059 325.279 594.655 320.881C600.952 317.583 607.549 315.783 613.646 316.683ZM613.946 328.577C609.548 327.778 605.75 329.077 602.151 330.077C596.854 331.576 591.657 340.472 593.156 344.37C594.755 348.268 601.152 350.367 607.249 348.867C612.546 347.668 617.344 345.169 621.742 342.171C624.341 340.372 629.038 339.572 627.939 335.074C626.84 331.076 623.241 329.277 619.043 328.977C617.244 328.877 615.345 328.677 613.946 328.577Z" fill="#EFF0EB"/>
</g>
</g>
</g>
</svg>
