<svg width="42" height="43" viewBox="0 0 42 43" fill="none" xmlns="http://www.w3.org/2000/svg">
<g filter="url(#filter0_d_2119_3484)">
<path d="M20.0458 29.3483C20.0458 27.7253 20.0458 26.1438 20.0458 24.4375C19.9627 22.1069 19.7964 21.9405 17.5107 22.0237C13.5626 22.1902 9.573 22.4815 5.70805 23.1057C5.45869 23.1057 5.08466 23.2722 4.83531 23.2722C4.12882 23.189 3.50544 23.0225 3.17297 22.1902C2.8405 21.4827 3.00674 20.8584 3.50544 20.2341C4.66909 18.9024 6.16519 18.4446 7.82754 18.4446C10.5704 18.4446 13.2717 18.1949 16.0146 17.9036C19.5471 17.529 19.5471 17.529 19.5471 13.9083C19.5471 12.0355 19.0899 10.246 18.8406 8.3732C18.7575 7.37438 18.5081 6.41718 18.6743 5.33513C18.9237 4.08661 19.9211 3.21265 20.9601 3.21265C21.999 3.29588 22.6224 4.00338 22.8302 5.45998C23.0796 8.41482 23.2873 11.328 23.3705 14.1996C23.3705 16.8631 23.4536 16.8631 26.0302 16.8631C29.0224 16.8631 33.8017 16.9464 36.7108 16.9464C37.9575 16.9464 38.9965 17.7371 38.9965 18.6527C39.0796 19.6515 37.6666 21.3994 36.4614 21.233C33.303 20.6919 28.3159 21.4827 25.0744 21.3994C23.9107 21.3994 23.5783 21.8572 23.6614 22.8976C23.8276 26.56 23.9107 29.6813 24.2016 33.302C24.2847 34.5505 23.8692 35.3412 22.8717 35.9655C21.4588 36.7562 20.0458 36.0487 19.9626 34.3424C19.9626 32.9274 19.9627 31.1379 20.0458 29.3483Z" fill="#F7F8F1"/>
<path d="M33.9656 33.3544C34.1379 31.8018 35.3438 30.5941 36.722 30.6804C38.0141 30.7666 39.0908 31.9743 38.9185 33.2682C38.7463 34.6483 37.2819 35.9422 35.9899 35.8559C34.7839 35.7697 33.8795 34.5621 33.9656 33.3544Z" fill="#F7F8F1"/>
<path d="M10.086 7.08967C10.086 7.99611 8.36189 9.67949 7.32742 9.76582C6.12054 9.85214 5.04297 8.64356 5.04297 7.43498C5.12917 6.05375 6.42226 4.58618 7.41362 4.58618C8.62049 4.71567 10.086 6.09691 10.086 7.08967Z" fill="#F7F8F1"/>
<path d="M32.3472 5.87653C32.4341 4.00559 33.4334 2.91783 35.1279 3.00485C36.2141 3.09188 37.17 4.22314 37.0831 5.22388C36.9962 6.6162 35.6058 8.18258 34.4327 8.18258C33.1727 8.22609 32.3472 7.26886 32.3472 5.87653Z" fill="#F7F8F1"/>
<path d="M8.50161 37.2678C7.22091 37.1762 6.58057 36.3975 6.58057 35.115C6.58057 33.4661 8.1357 32.0004 9.69083 32.092C10.7428 32.1836 11.7491 33.1913 11.7491 34.3364C11.6119 35.8937 10.0567 37.3594 8.50161 37.2678Z" fill="#F7F8F1"/>
</g>
<defs>
<filter id="filter0_d_2119_3484" x="-2" y="-1" width="46" height="46" filterUnits="userSpaceOnUse" color-interpolation-filters="sRGB">
<feFlood flood-opacity="0" result="BackgroundImageFix"/>
<feColorMatrix in="SourceAlpha" type="matrix" values="0 0 0 0 0 0 0 0 0 0 0 0 0 0 0 0 0 0 127 0" result="hardAlpha"/>
<feOffset dy="2"/>
<feGaussianBlur stdDeviation="1.5"/>
<feColorMatrix type="matrix" values="0 0 0 0 0.917647 0 0 0 0 0.917647 0 0 0 0 0.917647 0 0 0 0.36 0"/>
<feBlend mode="normal" in2="BackgroundImageFix" result="effect1_dropShadow_2119_3484"/>
<feBlend mode="normal" in="SourceGraphic" in2="effect1_dropShadow_2119_3484" result="shape"/>
</filter>
</defs>
</svg>
